<svg width="836" height="293" viewBox="0 0 836 293" fill="none" xmlns="http://www.w3.org/2000/svg">
<path d="M375.127 75.5218V87.0691H404.327V109.235H375.127V122.507H408.309V146H345.662V52.0291H408.309V75.5218H375.127ZM509.535 146H480.07L448.879 98.7491V146H419.413V52.0291H448.879L480.07 100.076V52.0291H509.535V146ZM580.451 84.1491C579.301 82.2909 577.664 80.8752 575.54 79.9018C573.416 78.84 570.85 78.3091 567.842 78.3091C562.179 78.3091 557.799 80.1673 554.702 83.8836C551.605 87.5115 550.056 92.5109 550.056 98.8818C550.056 106.226 551.782 111.712 555.233 115.34C558.684 118.968 563.993 120.782 571.16 120.782C577.973 120.782 583.459 118.039 587.618 112.553H564.125V91.7145H612.04V121.18C607.97 128.17 602.351 134.187 595.184 139.231C588.016 144.186 578.947 146.664 567.975 146.664C558.241 146.664 549.747 144.673 542.491 140.691C535.324 136.621 529.793 130.958 525.9 123.702C522.095 116.446 520.193 108.173 520.193 98.8818C520.193 89.5909 522.095 81.3176 525.9 74.0618C529.793 66.8061 535.324 61.1873 542.491 57.2055C549.658 53.1352 558.064 51.1 567.709 51.1C580.009 51.1 590.007 54.0642 597.705 59.9927C605.492 65.9212 610.093 73.9733 611.509 84.1491H580.451ZM652.117 52.0291V146H622.652V52.0291H652.117ZM755.547 146H726.082L694.891 98.7491V146H665.425V52.0291H694.891L726.082 100.076V52.0291H755.547V146ZM798.325 75.5218V87.0691H827.525V109.235H798.325V122.507H831.507V146H768.859V52.0291H831.507V75.5218H798.325Z" fill="#87C5FF"/>
<path d="M426.175 176.856L412.398 233H393.206L385.481 198.597L377.597 233H358.404L344.787 176.856H361.67L368.2 215.241L377.039 176.856H394.161L402.762 214.923L409.292 176.856H426.175ZM502.162 223.842H482.253L479.226 233H462.821L483.288 176.856H501.286L521.673 233H505.188L502.162 223.842ZM498.26 211.896L492.207 193.739L486.234 211.896H498.26ZM589.036 233L577.887 212.295H576.214V233H560.606V176.856H585.213C589.726 176.856 593.548 177.653 596.681 179.245C599.813 180.785 602.176 182.935 603.768 185.696C605.361 188.404 606.158 191.456 606.158 194.854C606.158 198.677 605.096 202.048 602.972 204.968C600.902 207.835 597.849 209.879 593.814 211.1L606.476 233H589.036ZM576.214 201.623H583.939C586.063 201.623 587.655 201.119 588.717 200.11C589.779 199.101 590.31 197.641 590.31 195.73C590.31 193.925 589.752 192.518 588.638 191.509C587.576 190.448 586.01 189.917 583.939 189.917H576.214V201.623ZM701.732 176.856L682.38 233H662.391L642.96 176.856H659.684L672.426 217.391L685.088 176.856H701.732ZM756.049 176.856V233H740.441V176.856H756.049ZM814.392 221.055H831.833V233H798.784V176.856H814.392V221.055Z" fill="#C1D0DE"/>
<path d="M355.523 268.301V283.146H354.036V268.301H355.523ZM366.449 271.338C367.837 271.338 368.969 271.77 369.847 272.634C370.725 273.483 371.164 274.722 371.164 276.35V283.146H369.698V276.52C369.698 275.26 369.38 274.297 368.743 273.632C368.12 272.966 367.263 272.634 366.173 272.634C365.055 272.634 364.163 272.987 363.497 273.695C362.832 274.403 362.499 275.444 362.499 276.817V283.146H361.013V271.55H362.499V273.525C362.867 272.818 363.398 272.28 364.092 271.911C364.786 271.529 365.571 271.338 366.449 271.338ZM378.508 272.803V280.003C378.508 280.71 378.642 281.199 378.911 281.468C379.18 281.737 379.654 281.871 380.334 281.871H381.693V283.146H380.1C379.053 283.146 378.274 282.905 377.764 282.423C377.255 281.928 377 281.121 377 280.003V272.803H375.386V271.55H377V268.641H378.508V271.55H381.693V272.803H378.508ZM396.759 276.753C396.759 277.263 396.745 277.652 396.717 277.921H387.096C387.139 278.799 387.351 279.549 387.734 280.172C388.116 280.795 388.618 281.27 389.241 281.595C389.864 281.907 390.544 282.062 391.28 282.062C392.243 282.062 393.05 281.829 393.701 281.362C394.366 280.894 394.805 280.264 395.018 279.472H396.589C396.306 280.604 395.697 281.532 394.763 282.254C393.843 282.961 392.682 283.315 391.28 283.315C390.19 283.315 389.213 283.075 388.349 282.593C387.486 282.098 386.806 281.404 386.311 280.512C385.829 279.606 385.589 278.551 385.589 277.348C385.589 276.145 385.829 275.09 386.311 274.184C386.792 273.278 387.465 272.584 388.328 272.103C389.192 271.621 390.176 271.381 391.28 271.381C392.384 271.381 393.347 271.621 394.168 272.103C395.003 272.584 395.641 273.235 396.079 274.056C396.532 274.863 396.759 275.762 396.759 276.753ZM395.251 276.711C395.265 275.847 395.088 275.111 394.72 274.502C394.366 273.894 393.878 273.433 393.255 273.122C392.632 272.81 391.953 272.655 391.216 272.655C390.112 272.655 389.171 273.009 388.392 273.717C387.613 274.424 387.181 275.423 387.096 276.711H395.251ZM403.089 267.431V283.146H401.602V267.431H403.089ZM410.065 267.431V283.146H408.579V267.431H410.065ZM416.299 269.363C416.001 269.363 415.746 269.257 415.534 269.045C415.322 268.832 415.216 268.57 415.216 268.259C415.216 267.947 415.322 267.693 415.534 267.494C415.746 267.282 416.001 267.176 416.299 267.176C416.596 267.176 416.851 267.282 417.063 267.494C417.275 267.693 417.382 267.947 417.382 268.259C417.382 268.57 417.275 268.832 417.063 269.045C416.851 269.257 416.596 269.363 416.299 269.363ZM417.042 271.55V283.146H415.555V271.55H417.042ZM427.395 271.381C428.485 271.381 429.434 271.635 430.241 272.145C431.048 272.655 431.628 273.299 431.982 274.078V271.55H433.469V283.443C433.469 284.505 433.235 285.446 432.768 286.267C432.315 287.088 431.678 287.718 430.856 288.157C430.035 288.61 429.101 288.837 428.053 288.837C426.567 288.837 425.328 288.483 424.337 287.775C423.36 287.067 422.751 286.104 422.511 284.887H423.976C424.231 285.694 424.712 286.338 425.42 286.819C426.142 287.301 427.02 287.541 428.053 287.541C428.804 287.541 429.476 287.379 430.071 287.053C430.665 286.742 431.133 286.274 431.472 285.651C431.812 285.028 431.982 284.292 431.982 283.443V280.576C431.614 281.369 431.026 282.027 430.219 282.551C429.427 283.061 428.485 283.315 427.395 283.315C426.333 283.315 425.377 283.068 424.528 282.572C423.693 282.077 423.034 281.376 422.553 280.47C422.086 279.564 421.852 278.516 421.852 277.327C421.852 276.138 422.086 275.097 422.553 274.205C423.034 273.299 423.693 272.605 424.528 272.124C425.377 271.628 426.333 271.381 427.395 271.381ZM431.982 277.348C431.982 276.414 431.791 275.592 431.409 274.885C431.026 274.177 430.503 273.632 429.837 273.249C429.186 272.867 428.464 272.676 427.671 272.676C426.85 272.676 426.114 272.86 425.462 273.228C424.811 273.596 424.294 274.134 423.912 274.842C423.544 275.536 423.36 276.364 423.36 277.327C423.36 278.275 423.544 279.111 423.912 279.833C424.294 280.541 424.811 281.086 425.462 281.468C426.114 281.836 426.85 282.02 427.671 282.02C428.464 282.02 429.186 281.829 429.837 281.447C430.503 281.064 431.026 280.519 431.409 279.811C431.791 279.104 431.982 278.282 431.982 277.348ZM449.477 276.753C449.477 277.263 449.462 277.652 449.434 277.921H439.814C439.857 278.799 440.069 279.549 440.451 280.172C440.833 280.795 441.336 281.27 441.959 281.595C442.582 281.907 443.261 282.062 443.998 282.062C444.96 282.062 445.767 281.829 446.419 281.362C447.084 280.894 447.523 280.264 447.735 279.472H449.307C449.024 280.604 448.415 281.532 447.48 282.254C446.56 282.961 445.399 283.315 443.998 283.315C442.907 283.315 441.931 283.075 441.067 282.593C440.203 282.098 439.524 281.404 439.028 280.512C438.547 279.606 438.306 278.551 438.306 277.348C438.306 276.145 438.547 275.09 439.028 274.184C439.51 273.278 440.182 272.584 441.046 272.103C441.909 271.621 442.893 271.381 443.998 271.381C445.102 271.381 446.065 271.621 446.886 272.103C447.721 272.584 448.358 273.235 448.797 274.056C449.25 274.863 449.477 275.762 449.477 276.753ZM447.969 276.711C447.983 275.847 447.806 275.111 447.438 274.502C447.084 273.894 446.596 273.433 445.973 273.122C445.35 272.81 444.67 272.655 443.934 272.655C442.83 272.655 441.888 273.009 441.109 273.717C440.331 274.424 439.899 275.423 439.814 276.711H447.969ZM459.757 271.338C461.144 271.338 462.277 271.77 463.154 272.634C464.032 273.483 464.471 274.722 464.471 276.35V283.146H463.006V276.52C463.006 275.26 462.687 274.297 462.05 273.632C461.427 272.966 460.571 272.634 459.48 272.634C458.362 272.634 457.47 272.987 456.805 273.695C456.139 274.403 455.807 275.444 455.807 276.817V283.146H454.32V271.55H455.807V273.525C456.175 272.818 456.706 272.28 457.399 271.911C458.093 271.529 458.879 271.338 459.757 271.338ZM471.815 272.803V280.003C471.815 280.71 471.949 281.199 472.218 281.468C472.487 281.737 472.962 281.871 473.641 281.871H475V283.146H473.408C472.36 283.146 471.581 282.905 471.072 282.423C470.562 281.928 470.307 281.121 470.307 280.003V272.803H468.693V271.55H470.307V268.641H471.815V271.55H475V272.803H471.815ZM486.847 277.348C486.847 276.145 487.088 275.097 487.569 274.205C488.051 273.299 488.716 272.605 489.565 272.124C490.415 271.628 491.385 271.381 492.475 271.381C493.905 271.381 495.08 271.735 496 272.442C496.934 273.15 497.536 274.113 497.805 275.331H496.212C496.014 274.495 495.582 273.844 494.917 273.377C494.266 272.895 493.452 272.655 492.475 272.655C491.696 272.655 490.995 272.832 490.372 273.186C489.749 273.54 489.254 274.071 488.886 274.778C488.532 275.472 488.355 276.329 488.355 277.348C488.355 278.367 488.532 279.231 488.886 279.939C489.254 280.647 489.749 281.178 490.372 281.532C490.995 281.885 491.696 282.062 492.475 282.062C493.452 282.062 494.266 281.829 494.917 281.362C495.582 280.88 496.014 280.215 496.212 279.365H497.805C497.536 280.555 496.934 281.51 496 282.232C495.066 282.954 493.891 283.315 492.475 283.315C491.385 283.315 490.415 283.075 489.565 282.593C488.716 282.098 488.051 281.404 487.569 280.512C487.088 279.606 486.847 278.551 486.847 277.348ZM508.196 271.338C509.073 271.338 509.859 271.522 510.553 271.89C511.261 272.258 511.813 272.825 512.209 273.589C512.62 274.339 512.825 275.26 512.825 276.35V283.146H511.36V276.52C511.36 275.26 511.041 274.297 510.404 273.632C509.781 272.966 508.925 272.634 507.835 272.634C506.716 272.634 505.824 272.987 505.159 273.695C504.493 274.403 504.161 275.444 504.161 276.817V283.146H502.674V267.431H504.161V273.525C504.529 272.832 505.067 272.294 505.775 271.911C506.497 271.529 507.304 271.338 508.196 271.338ZM517.557 277.327C517.557 276.138 517.79 275.097 518.258 274.205C518.739 273.299 519.397 272.605 520.233 272.124C521.082 271.628 522.038 271.381 523.1 271.381C524.204 271.381 525.152 271.635 525.945 272.145C526.752 272.655 527.333 273.306 527.687 274.099V271.55H529.173V283.146H527.687V280.576C527.319 281.369 526.731 282.027 525.924 282.551C525.131 283.061 524.183 283.315 523.078 283.315C522.031 283.315 521.082 283.068 520.233 282.572C519.397 282.077 518.739 281.376 518.258 280.47C517.79 279.564 517.557 278.516 517.557 277.327ZM527.687 277.348C527.687 276.414 527.496 275.592 527.113 274.885C526.731 274.177 526.207 273.632 525.542 273.249C524.891 272.867 524.168 272.676 523.376 272.676C522.555 272.676 521.818 272.86 521.167 273.228C520.516 273.596 519.999 274.134 519.617 274.842C519.249 275.536 519.065 276.364 519.065 277.327C519.065 278.275 519.249 279.111 519.617 279.833C519.999 280.541 520.516 281.086 521.167 281.468C521.818 281.836 522.555 282.02 523.376 282.02C524.168 282.02 524.891 281.829 525.542 281.447C526.207 281.064 526.731 280.519 527.113 279.811C527.496 279.104 527.687 278.282 527.687 277.348ZM536.623 272.803V280.003C536.623 280.71 536.758 281.199 537.027 281.468C537.295 281.737 537.77 281.871 538.449 281.871H539.808V283.146H538.216C537.168 283.146 536.389 282.905 535.88 282.423C535.37 281.928 535.115 281.121 535.115 280.003V272.803H533.501V271.55H535.115V268.641H536.623V271.55H539.808V272.803H536.623ZM545.849 274.12C546.231 273.313 546.819 272.655 547.612 272.145C548.419 271.635 549.367 271.381 550.457 271.381C551.519 271.381 552.468 271.628 553.303 272.124C554.138 272.605 554.79 273.299 555.257 274.205C555.738 275.097 555.979 276.138 555.979 277.327C555.979 278.516 555.738 279.564 555.257 280.47C554.79 281.376 554.131 282.077 553.282 282.572C552.446 283.068 551.505 283.315 550.457 283.315C549.353 283.315 548.397 283.068 547.59 282.572C546.798 282.062 546.217 281.404 545.849 280.597V283.146H544.384V267.431H545.849V274.12ZM554.471 277.327C554.471 276.364 554.28 275.536 553.898 274.842C553.53 274.134 553.02 273.596 552.369 273.228C551.717 272.86 550.981 272.676 550.16 272.676C549.367 272.676 548.638 272.867 547.973 273.249C547.321 273.632 546.805 274.177 546.422 274.885C546.04 275.592 545.849 276.414 545.849 277.348C545.849 278.282 546.04 279.104 546.422 279.811C546.805 280.519 547.321 281.064 547.973 281.447C548.638 281.829 549.367 282.02 550.16 282.02C550.981 282.02 551.717 281.836 552.369 281.468C553.02 281.086 553.53 280.541 553.898 279.833C554.28 279.111 554.471 278.275 554.471 277.327ZM565.913 283.315C564.823 283.315 563.839 283.075 562.961 282.593C562.098 282.098 561.411 281.404 560.901 280.512C560.406 279.606 560.158 278.551 560.158 277.348C560.158 276.145 560.413 275.097 560.923 274.205C561.432 273.299 562.126 272.605 563.004 272.124C563.882 271.628 564.866 271.381 565.956 271.381C567.046 271.381 568.03 271.628 568.908 272.124C569.8 272.605 570.493 273.299 570.989 274.205C571.498 275.097 571.753 276.145 571.753 277.348C571.753 278.537 571.498 279.585 570.989 280.491C570.479 281.397 569.778 282.098 568.886 282.593C567.994 283.075 567.003 283.315 565.913 283.315ZM565.913 282.02C566.678 282.02 567.386 281.85 568.037 281.51C568.688 281.156 569.212 280.633 569.608 279.939C570.019 279.231 570.224 278.367 570.224 277.348C570.224 276.329 570.026 275.472 569.63 274.778C569.233 274.071 568.709 273.547 568.058 273.207C567.407 272.853 566.699 272.676 565.934 272.676C565.17 272.676 564.462 272.853 563.811 273.207C563.16 273.547 562.636 274.071 562.239 274.778C561.857 275.472 561.666 276.329 561.666 277.348C561.666 278.367 561.857 279.231 562.239 279.939C562.636 280.633 563.153 281.156 563.79 281.51C564.441 281.85 565.149 282.02 565.913 282.02ZM578.519 272.803V280.003C578.519 280.71 578.654 281.199 578.923 281.468C579.192 281.737 579.666 281.871 580.346 281.871H581.705V283.146H580.112C579.064 283.146 578.286 282.905 577.776 282.423C577.266 281.928 577.011 281.121 577.011 280.003V272.803H575.397V271.55H577.011V268.641H578.519V271.55H581.705V272.803H578.519ZM595.696 274.099C596.065 273.32 596.645 272.676 597.438 272.166C598.245 271.642 599.2 271.381 600.305 271.381C601.352 271.381 602.294 271.628 603.129 272.124C603.979 272.605 604.637 273.299 605.104 274.205C605.585 275.097 605.826 276.138 605.826 277.327C605.826 278.516 605.585 279.564 605.104 280.47C604.637 281.376 603.979 282.077 603.129 282.572C602.294 283.068 601.352 283.315 600.305 283.315C599.215 283.315 598.266 283.061 597.459 282.551C596.652 282.027 596.065 281.376 595.696 280.597V288.624H594.231V271.55H595.696V274.099ZM604.318 277.327C604.318 276.364 604.127 275.536 603.745 274.842C603.377 274.134 602.867 273.596 602.216 273.228C601.565 272.86 600.829 272.676 600.007 272.676C599.215 272.676 598.485 272.867 597.82 273.249C597.169 273.632 596.652 274.177 596.27 274.885C595.888 275.592 595.696 276.414 595.696 277.348C595.696 278.282 595.888 279.104 596.27 279.811C596.652 280.519 597.169 281.064 597.82 281.447C598.485 281.829 599.215 282.02 600.007 282.02C600.829 282.02 601.565 281.836 602.216 281.468C602.867 281.086 603.377 280.541 603.745 279.833C604.127 279.111 604.318 278.275 604.318 277.327ZM615.761 283.315C614.671 283.315 613.687 283.075 612.809 282.593C611.945 282.098 611.259 281.404 610.749 280.512C610.253 279.606 610.006 278.551 610.006 277.348C610.006 276.145 610.26 275.097 610.77 274.205C611.28 273.299 611.973 272.605 612.851 272.124C613.729 271.628 614.713 271.381 615.803 271.381C616.893 271.381 617.877 271.628 618.755 272.124C619.647 272.605 620.341 273.299 620.836 274.205C621.346 275.097 621.601 276.145 621.601 277.348C621.601 278.537 621.346 279.585 620.836 280.491C620.326 281.397 619.626 282.098 618.734 282.593C617.842 283.075 616.851 283.315 615.761 283.315ZM615.761 282.02C616.525 282.02 617.233 281.85 617.884 281.51C618.536 281.156 619.059 280.633 619.456 279.939C619.866 279.231 620.072 278.367 620.072 277.348C620.072 276.329 619.873 275.472 619.477 274.778C619.081 274.071 618.557 273.547 617.906 273.207C617.254 272.853 616.546 272.676 615.782 272.676C615.017 272.676 614.309 272.853 613.658 273.207C613.007 273.547 612.483 274.071 612.087 274.778C611.704 275.472 611.513 276.329 611.513 277.348C611.513 278.367 611.704 279.231 612.087 279.939C612.483 280.633 613 281.156 613.637 281.51C614.288 281.85 614.996 282.02 615.761 282.02ZM641.724 271.55L638.093 283.146H636.606L633.4 273.419L630.193 283.146H628.685L625.054 271.55H626.561L629.45 281.638L632.699 271.55H634.185L637.392 281.659L640.259 271.55H641.724ZM656.365 276.753C656.365 277.263 656.351 277.652 656.323 277.921H646.703C646.745 278.799 646.958 279.549 647.34 280.172C647.722 280.795 648.225 281.27 648.848 281.595C649.471 281.907 650.15 282.062 650.886 282.062C651.849 282.062 652.656 281.829 653.307 281.362C653.973 280.894 654.411 280.264 654.624 279.472H656.195C655.912 280.604 655.303 281.532 654.369 282.254C653.449 282.961 652.288 283.315 650.886 283.315C649.796 283.315 648.819 283.075 647.956 282.593C647.092 282.098 646.412 281.404 645.917 280.512C645.436 279.606 645.195 278.551 645.195 277.348C645.195 276.145 645.436 275.09 645.917 274.184C646.398 273.278 647.071 272.584 647.934 272.103C648.798 271.621 649.782 271.381 650.886 271.381C651.991 271.381 652.953 271.621 653.774 272.103C654.61 272.584 655.247 273.235 655.686 274.056C656.139 274.863 656.365 275.762 656.365 276.753ZM654.857 276.711C654.872 275.847 654.695 275.111 654.327 274.502C653.973 273.894 653.484 273.433 652.861 273.122C652.238 272.81 651.559 272.655 650.823 272.655C649.718 272.655 648.777 273.009 647.998 273.717C647.219 274.424 646.788 275.423 646.703 276.711H654.857ZM662.695 273.61C663.021 272.888 663.516 272.329 664.182 271.933C664.861 271.536 665.689 271.338 666.666 271.338V272.888H666.263C665.187 272.888 664.323 273.179 663.672 273.759C663.021 274.339 662.695 275.309 662.695 276.668V283.146H661.209V271.55H662.695V273.61ZM681.517 276.753C681.517 277.263 681.503 277.652 681.475 277.921H671.855C671.897 278.799 672.109 279.549 672.492 280.172C672.874 280.795 673.376 281.27 673.999 281.595C674.622 281.907 675.302 282.062 676.038 282.062C677.001 282.062 677.808 281.829 678.459 281.362C679.124 280.894 679.563 280.264 679.776 279.472H681.347C681.064 280.604 680.455 281.532 679.521 282.254C678.601 282.961 677.44 283.315 676.038 283.315C674.948 283.315 673.971 283.075 673.107 282.593C672.244 282.098 671.564 281.404 671.069 280.512C670.587 279.606 670.347 278.551 670.347 277.348C670.347 276.145 670.587 275.09 671.069 274.184C671.55 273.278 672.223 272.584 673.086 272.103C673.95 271.621 674.934 271.381 676.038 271.381C677.142 271.381 678.105 271.621 678.926 272.103C679.762 272.584 680.399 273.235 680.838 274.056C681.291 274.863 681.517 275.762 681.517 276.753ZM680.009 276.711C680.023 275.847 679.846 275.111 679.478 274.502C679.124 273.894 678.636 273.433 678.013 273.122C677.39 272.81 676.711 272.655 675.974 272.655C674.87 272.655 673.929 273.009 673.15 273.717C672.371 274.424 671.939 275.423 671.855 276.711H680.009ZM685.681 277.327C685.681 276.138 685.922 275.097 686.403 274.205C686.884 273.299 687.543 272.605 688.378 272.124C689.227 271.628 690.183 271.381 691.245 271.381C692.264 271.381 693.184 271.628 694.006 272.124C694.827 272.619 695.428 273.264 695.811 274.056V267.431H697.297V283.146H695.811V280.555C695.457 281.362 694.876 282.027 694.069 282.551C693.262 283.061 692.314 283.315 691.224 283.315C690.162 283.315 689.206 283.068 688.357 282.572C687.521 282.077 686.863 281.376 686.382 280.47C685.914 279.564 685.681 278.516 685.681 277.327ZM695.811 277.348C695.811 276.414 695.619 275.592 695.237 274.885C694.855 274.177 694.331 273.632 693.666 273.249C693.014 272.867 692.292 272.676 691.5 272.676C690.678 272.676 689.942 272.86 689.291 273.228C688.64 273.596 688.123 274.134 687.741 274.842C687.373 275.536 687.189 276.364 687.189 277.327C687.189 278.275 687.373 279.111 687.741 279.833C688.123 280.541 688.64 281.086 689.291 281.468C689.942 281.836 690.678 282.02 691.5 282.02C692.292 282.02 693.014 281.829 693.666 281.447C694.331 281.064 694.855 280.519 695.237 279.811C695.619 279.104 695.811 278.282 695.811 277.348ZM712.231 274.12C712.613 273.313 713.201 272.655 713.994 272.145C714.801 271.635 715.749 271.381 716.839 271.381C717.901 271.381 718.85 271.628 719.685 272.124C720.52 272.605 721.171 273.299 721.639 274.205C722.12 275.097 722.361 276.138 722.361 277.327C722.361 278.516 722.12 279.564 721.639 280.47C721.171 281.376 720.513 282.077 719.664 282.572C718.828 283.068 717.887 283.315 716.839 283.315C715.735 283.315 714.779 283.068 713.972 282.572C713.18 282.062 712.599 281.404 712.231 280.597V283.146H710.766V267.431H712.231V274.12ZM720.853 277.327C720.853 276.364 720.662 275.536 720.28 274.842C719.911 274.134 719.402 273.596 718.751 273.228C718.099 272.86 717.363 272.676 716.542 272.676C715.749 272.676 715.02 272.867 714.355 273.249C713.703 273.632 713.187 274.177 712.804 274.885C712.422 275.592 712.231 276.414 712.231 277.348C712.231 278.282 712.422 279.104 712.804 279.811C713.187 280.519 713.703 281.064 714.355 281.447C715.02 281.829 715.749 282.02 716.542 282.02C717.363 282.02 718.099 281.836 718.751 281.468C719.402 281.086 719.911 280.541 720.28 279.833C720.662 279.111 720.853 278.275 720.853 277.327ZM736.776 271.55L729.895 288.603H728.345L730.596 283.082L725.839 271.55H727.475L731.424 281.447L735.247 271.55H736.776ZM755.535 283.294C754.162 283.294 752.916 282.976 751.797 282.339C750.679 281.687 749.794 280.788 749.143 279.642C748.506 278.481 748.187 277.171 748.187 275.713C748.187 274.255 748.506 272.952 749.143 271.805C749.794 270.644 750.679 269.745 751.797 269.108C752.916 268.457 754.162 268.131 755.535 268.131C756.922 268.131 758.175 268.457 759.294 269.108C760.412 269.745 761.29 270.644 761.927 271.805C762.564 272.952 762.883 274.255 762.883 275.713C762.883 277.171 762.564 278.481 761.927 279.642C761.29 280.788 760.412 281.687 759.294 282.339C758.175 282.976 756.922 283.294 755.535 283.294ZM755.535 281.999C756.639 281.999 757.63 281.744 758.508 281.234C759.386 280.725 760.079 279.995 760.589 279.047C761.099 278.084 761.354 276.973 761.354 275.713C761.354 274.453 761.099 273.348 760.589 272.4C760.079 271.451 759.386 270.722 758.508 270.213C757.63 269.703 756.639 269.448 755.535 269.448C754.431 269.448 753.44 269.703 752.562 270.213C751.684 270.722 750.99 271.451 750.481 272.4C749.971 273.348 749.716 274.453 749.716 275.713C749.716 276.973 749.971 278.084 750.481 279.047C750.99 279.995 751.684 280.725 752.562 281.234C753.44 281.744 754.431 281.999 755.535 281.999ZM769.192 274.099C769.56 273.32 770.14 272.676 770.933 272.166C771.74 271.642 772.696 271.381 773.8 271.381C774.848 271.381 775.789 271.628 776.624 272.124C777.474 272.605 778.132 273.299 778.599 274.205C779.081 275.097 779.321 276.138 779.321 277.327C779.321 278.516 779.081 279.564 778.599 280.47C778.132 281.376 777.474 282.077 776.624 282.572C775.789 283.068 774.848 283.315 773.8 283.315C772.71 283.315 771.761 283.061 770.954 282.551C770.147 282.027 769.56 281.376 769.192 280.597V288.624H767.726V271.55H769.192V274.099ZM777.814 277.327C777.814 276.364 777.623 275.536 777.24 274.842C776.872 274.134 776.363 273.596 775.711 273.228C775.06 272.86 774.324 272.676 773.503 272.676C772.71 272.676 771.981 272.867 771.315 273.249C770.664 273.632 770.147 274.177 769.765 274.885C769.383 275.592 769.192 276.414 769.192 277.348C769.192 278.282 769.383 279.104 769.765 279.811C770.147 280.519 770.664 281.064 771.315 281.447C771.981 281.829 772.71 282.02 773.503 282.02C774.324 282.02 775.06 281.836 775.711 281.468C776.363 281.086 776.872 280.541 777.24 279.833C777.623 279.111 777.814 278.275 777.814 277.327ZM794.671 276.753C794.671 277.263 794.657 277.652 794.629 277.921H785.009C785.051 278.799 785.263 279.549 785.646 280.172C786.028 280.795 786.531 281.27 787.154 281.595C787.776 281.907 788.456 282.062 789.192 282.062C790.155 282.062 790.962 281.829 791.613 281.362C792.279 280.894 792.717 280.264 792.93 279.472H794.501C794.218 280.604 793.609 281.532 792.675 282.254C791.755 282.961 790.594 283.315 789.192 283.315C788.102 283.315 787.125 283.075 786.262 282.593C785.398 282.098 784.718 281.404 784.223 280.512C783.742 279.606 783.501 278.551 783.501 277.348C783.501 276.145 783.742 275.09 784.223 274.184C784.704 273.278 785.377 272.584 786.24 272.103C787.104 271.621 788.088 271.381 789.192 271.381C790.296 271.381 791.259 271.621 792.08 272.103C792.916 272.584 793.553 273.235 793.992 274.056C794.445 274.863 794.671 275.762 794.671 276.753ZM793.163 276.711C793.178 275.847 793.001 275.111 792.632 274.502C792.279 273.894 791.79 273.433 791.167 273.122C790.544 272.81 789.865 272.655 789.128 272.655C788.024 272.655 787.083 273.009 786.304 273.717C785.525 274.424 785.094 275.423 785.009 276.711H793.163ZM804.951 271.338C806.339 271.338 807.471 271.77 808.349 272.634C809.227 273.483 809.666 274.722 809.666 276.35V283.146H808.2V276.52C808.2 275.26 807.882 274.297 807.245 273.632C806.622 272.966 805.765 272.634 804.675 272.634C803.557 272.634 802.665 272.987 801.999 273.695C801.334 274.403 801.001 275.444 801.001 276.817V283.146H799.515V271.55H801.001V273.525C801.369 272.818 801.9 272.28 802.594 271.911C803.288 271.529 804.073 271.338 804.951 271.338ZM823.678 279.62H816.924L815.629 283.146H814.057L819.473 268.492H821.15L826.544 283.146H824.973L823.678 279.62ZM823.232 278.389L820.301 270.361L817.37 278.389H823.232ZM832.54 268.301V283.146H831.054V268.301H832.54Z" fill="#9FABB7"/>
<path d="M102.001 222.499C102.001 220.245 102.896 218.083 104.49 216.489C106.084 214.895 108.246 213.999 110.501 213.999H161.501C163.755 213.999 165.917 214.895 167.511 216.489C169.105 218.083 170.001 220.245 170.001 222.499C170.001 224.753 169.105 226.915 167.511 228.51C165.917 230.104 163.755 230.999 161.501 230.999H110.501C108.246 230.999 106.084 230.104 104.49 228.51C102.896 226.915 102.001 224.753 102.001 222.499ZM51.0008 147.053C51.0008 124.919 71.9958 108.004 94.0108 110.061C121.943 112.668 150.058 112.668 177.991 110.061C200.006 108.004 221.001 124.919 221.001 147.053V166.722C221.07 170.483 219.8 174.147 217.418 177.059C215.036 179.97 211.696 181.94 207.996 182.617C193.631 185.116 168.216 188.499 136.001 188.499C103.786 188.499 78.3708 185.099 64.0058 182.617C60.3051 181.94 56.9655 179.97 54.5833 177.059C52.2011 174.147 50.9313 170.483 51.0008 166.722V147.053ZM128.215 132.994C127.552 132.881 126.872 132.927 126.231 133.128C125.59 133.329 125.005 133.68 124.526 134.15L108.886 149.45C98.2479 148.816 87.6379 147.778 77.0787 146.339C75.9845 146.23 74.8908 146.55 74.0273 147.231C73.1638 147.912 72.5977 148.901 72.4481 149.99C72.2984 151.079 72.5768 152.184 73.2247 153.073C73.8727 153.961 74.8398 154.564 75.9228 154.754C85.2728 156.046 96.8668 157.287 110.263 158.035C110.853 158.068 111.443 157.978 111.997 157.77C112.55 157.563 113.054 157.242 113.476 156.828L126.294 144.316L140.693 173.386C140.996 173.996 141.442 174.524 141.992 174.926C142.542 175.327 143.18 175.591 143.853 175.694C144.527 175.798 145.215 175.738 145.86 175.519C146.505 175.301 147.089 174.931 147.561 174.44L163.405 157.95C174.333 157.301 185.232 156.235 196.079 154.754C197.162 154.564 198.129 153.961 198.777 153.073C199.425 152.184 199.703 151.079 199.553 149.99C199.404 148.901 198.838 147.912 197.974 147.231C197.111 146.55 196.017 146.23 194.923 146.339C185.777 147.597 174.404 148.804 161.263 149.552C160.193 149.612 159.185 150.073 158.441 150.844L145.623 164.189L131.309 135.289C131.01 134.69 130.574 134.17 130.037 133.771C129.499 133.372 128.875 133.106 128.215 132.994Z" fill="#C0CFDD"/>
<path d="M144.5 41.7224C147.741 39.8513 150.274 36.963 151.706 33.5056C153.138 30.0482 153.389 26.2148 152.421 22.6001C151.452 18.9853 149.318 15.7912 146.349 13.513C143.38 11.2348 139.742 10 136 10C132.258 10 128.62 11.2348 125.651 13.513C122.682 15.7912 120.548 18.9853 119.579 22.6001C118.611 26.2148 118.862 30.0482 120.294 33.5056C121.726 36.963 124.259 39.8513 127.5 41.7224V61.0004H93.5C73.2109 61.0004 53.7529 69.0602 39.4063 83.4068C25.0598 97.7533 17 117.211 17 137.5V146C12.4913 146 8.1673 147.792 4.97919 150.98C1.79107 154.168 0 158.492 0 163L0 197C0 201.509 1.79107 205.833 4.97919 209.021C8.1673 212.209 12.4913 214 17 214V231C17 240.018 20.5821 248.666 26.9584 255.042C33.3346 261.418 41.9826 265 51 265H221C230.017 265 238.665 261.418 245.042 255.042C251.418 248.666 255 240.018 255 231V214C259.509 214 263.833 212.209 267.021 209.021C270.209 205.833 272 201.509 272 197V163C272 158.492 270.209 154.168 267.021 150.98C263.833 147.792 259.509 146 255 146V137.5C255 117.211 246.94 97.7533 232.594 83.4068C218.247 69.0602 198.789 61.0004 178.5 61.0004H144.5V41.7224ZM238 137.5V231C238 235.509 236.209 239.833 233.021 243.021C229.833 246.209 225.509 248 221 248H51C46.4913 248 42.1673 246.209 38.9792 243.021C35.7911 239.833 34 235.509 34 231V137.5C34 121.72 40.2687 106.586 51.4271 95.4276C62.5856 84.2692 77.7196 78.0004 93.5 78.0004H178.5C194.28 78.0004 209.414 84.2692 220.573 95.4276C231.731 106.586 238 121.72 238 137.5Z" fill="#87C5FF"/>
</svg>
