<svg width="1440" height="911" viewBox="0 0 1440 911" fill="none" xmlns="http://www.w3.org/2000/svg">
<g clip-path="url(#clip0_1095_11403)">
<g opacity="0.4" filter="url(#filter0_f_1095_11403)">
<circle cx="1064.09" cy="499.088" r="245.428" transform="rotate(45 1064.09 499.088)" fill="#87C5FF" fill-opacity="0.6"/>
</g>
<g opacity="0.4" filter="url(#filter1_f_1095_11403)">
<circle cx="1000.59" cy="104.686" r="102.806" transform="rotate(45 1000.59 104.686)" fill="#87C5FF" fill-opacity="0.6"/>
</g>
<g opacity="0.4" filter="url(#filter2_f_1095_11403)">
<circle cx="1779.51" cy="883.609" r="102.806" transform="rotate(45 1779.51 883.609)" fill="#87C5FF" fill-opacity="0.6"/>
</g>
<g opacity="0.4" filter="url(#filter3_f_1095_11403)">
<circle cx="96.583" cy="-328.554" r="102.806" transform="rotate(45 96.583 -328.554)" fill="#87C5FF" fill-opacity="0.6"/>
</g>
<g opacity="0.1">
<path d="M-27.6306 -120.135C421.981 48.7747 682.297 -0.471251 837.964 -79.6446C1011.69 -168.01 1132.91 -333.249 1187.88 -296.069C1223.08 -272.264 1205.89 -182.48 1156.33 2.44025C1006.05 563.196 916.289 662.255 979.226 774.2C1067.37 931.045 1304.49 844.95 1489.29 1036.72C1625.02 1177.58 1646.94 1379.46 1642.38 1534.87" stroke="#87C5FF" stroke-width="1.97434" stroke-miterlimit="10"/>
<path d="M-20.9471 -141.67C416.935 21.554 678.983 -17.3005 830.31 -86.0677C999.42 -162.919 1113.46 -320.534 1165.48 -281.363C1198.93 -256.183 1181.98 -167.996 1134.13 10.6021C988.777 553.313 899.353 655.064 962.827 765.127C1053.42 920.942 1298.94 819.866 1491.58 1007.79C1495.78 1011.89 1499.86 1015.97 1503.85 1020.16C1635.38 1158.66 1658.85 1362.18 1656.4 1518.71" stroke="#87C5FF" stroke-width="1.97434" stroke-miterlimit="10"/>
<path d="M-14.2406 -163.181C411.876 -5.65366 675.312 -33.9478 822.666 -92.4636C986.91 -157.691 1094.03 -307.769 1143.1 -266.63C1174.8 -240.061 1158.08 -153.462 1111.93 18.7906C971.477 543.399 882.049 648.113 946.461 756.086C1038.98 911.176 1293.54 794.766 1493.9 978.888C1498.3 982.927 1502.68 986.951 1506.87 991.177C1643.41 1129.12 1670.93 1340.4 1670.44 1502.57" stroke="#87C5FF" stroke-width="1.97434" stroke-miterlimit="10"/>
<path d="M-7.55037 -184.709C406.881 -32.8748 671.169 -50.4424 815.01 -98.8713C974.062 -152.425 1074.6 -294.985 1120.69 -251.909C1150.64 -223.925 1134.14 -138.976 1089.72 26.9631C954.154 533.53 864.96 641.033 930.082 747.033C1024.81 901.227 1288.23 769.604 1496.22 949.974C1500.83 953.976 1505.43 957.987 1509.85 962.15C1653.45 1097.48 1682.97 1318.58 1684.46 1486.38" stroke="#87C5FF" stroke-width="1.97434" stroke-miterlimit="10"/>
<path d="M-0.858534 -206.234C401.83 -60.073 666.492 -66.8125 807.352 -105.281C960.815 -147.19 1055.17 -282.163 1098.3 -237.181C1126.5 -207.772 1110.22 -124.465 1067.52 35.1474C936.85 523.647 847.891 633.949 913.71 737.979C1010.71 891.296 1283.01 744.391 1498.55 921.045C1503.38 925.02 1508.21 929 1512.9 933.155C1662.45 1066.96 1695.05 1296.79 1698.51 1470.25" stroke="#87C5FF" stroke-width="1.97434" stroke-miterlimit="10"/>
<path d="M5.83443 -227.76C396.79 -87.2717 661.194 -83.0961 799.703 -111.673C947.094 -142.088 1035.72 -269.329 1075.91 -222.448C1102.36 -191.589 1086.3 -109.955 1045.32 43.3354C919.561 513.777 830.857 626.865 897.343 728.938C996.624 881.347 1277.87 719.123 1500.86 892.155C1505.93 896.085 1511 900.007 1515.91 904.176C1671.37 1036.48 1707.13 1275.03 1712.54 1454.12" stroke="#87C5FF" stroke-width="1.97434" stroke-miterlimit="10"/>
<path d="M12.5315 -249.282C391.757 -114.488 655.195 -99.3792 792.041 -118.088C932.832 -137.339 1016.29 -256.445 1053.51 -207.73C1078.2 -175.406 1062.36 -95.4405 1023.1 51.501C902.252 503.879 813.827 619.76 880.962 719.874C982.565 871.391 1272.78 693.781 1503.17 863.233C1508.48 867.142 1513.78 871.006 1518.9 875.16C1680.25 1005.97 1719.17 1253.23 1726.55 1437.95" stroke="#87C5FF" stroke-width="1.97434" stroke-miterlimit="10"/>
<path d="M19.2241 -270.807C386.72 -141.699 647.293 -141.962 784.388 -124.493C912.006 -158.498 996.823 -243.545 1031.11 -193.006C1054.04 -159.201 1038.45 -80.9469 1000.87 59.7062C884.928 494.017 796.802 612.668 864.565 710.846C968.51 861.439 1267.73 668.406 1505.45 834.338C1510.98 838.197 1516.53 842.04 1521.89 846.185C1689.1 975.562 1731.25 1231.48 1740.58 1421.83" stroke="#87C5FF" stroke-width="1.97434" stroke-miterlimit="10"/>
<path d="M25.9152 -292.334C381.686 -168.907 642.301 -162.178 776.733 -130.9C897.765 -157.138 977.337 -230.625 1008.71 -178.279C1029.87 -142.98 1014.54 -66.4551 978.683 67.8626C867.621 484.088 779.841 605.528 848.214 701.777C954.527 851.431 1262.78 642.926 1507.79 805.403C1513.54 809.218 1519.33 813.02 1524.92 817.161C1697.95 945.13 1743.31 1209.65 1754.63 1405.66" stroke="#87C5FF" stroke-width="1.97434" stroke-miterlimit="10"/>
<path d="M32.6081 -313.86C376.649 -196.119 637.299 -182.389 769.075 -137.309C883.526 -155.786 957.835 -217.686 986.32 -163.556C1005.69 -126.754 990.616 -51.9445 956.478 76.0375C850.328 474.24 762.885 598.395 831.846 692.719C940.56 841.43 1257.84 617.404 1510.11 776.482C1516.09 780.257 1522.11 784.028 1527.94 788.156C1706.77 914.738 1755.38 1187.86 1768.67 1389.5" stroke="#87C5FF" stroke-width="1.97434" stroke-miterlimit="10"/>
<path d="M39.3037 -335.382C371.62 -223.322 632.303 -202.6 761.416 -143.712C869.28 -154.422 938.301 -204.727 963.917 -148.833C981.483 -110.512 966.687 -37.4306 934.284 84.2074C833.049 464.33 745.954 591.243 815.477 683.659C926.62 831.397 1252.94 591.82 1512.44 747.561C1518.65 751.291 1524.89 755.035 1530.96 759.141C1715.58 884.376 1767.45 1166.06 1782.71 1373.34" stroke="#87C5FF" stroke-width="1.97434" stroke-miterlimit="10"/>
<path d="M45.9995 -356.913C366.569 -250.54 627.316 -222.803 753.749 -150.096C855.027 -153.04 918.738 -191.747 941.496 -134.094C957.235 -94.2491 942.746 -22.9129 912.038 92.4107C815.71 454.47 728.997 584.108 799.079 674.638C912.678 821.395 1248.02 566.231 1514.72 718.677C1521.17 722.368 1527.62 726.058 1533.92 730.186C1724.32 854.091 1779.48 1144.31 1796.7 1357.23" stroke="#87C5FF" stroke-width="1.97434" stroke-miterlimit="10"/>
<path d="M52.6919 -378.438C361.536 -277.747 622.303 -243.032 746.108 -156.523C840.8 -151.7 899.165 -178.802 919.125 -119.383C933.018 -78.015 918.84 -8.41906 889.85 100.578C798.446 444.593 712.115 576.929 782.716 665.566C898.804 811.309 1243.18 540.513 1517.05 689.748C1523.73 693.385 1530.43 697.071 1536.98 701.169C1733.12 823.791 1791.6 1122.49 1810.77 1341.07" stroke="#87C5FF" stroke-width="1.97434" stroke-miterlimit="10"/>
<path d="M59.3981 -399.95C356.499 -304.958 617.3 -263.243 738.446 -162.92C826.547 -150.336 879.557 -165.841 896.727 -104.655C908.762 -61.7607 894.921 6.08691 867.648 108.757C781.129 434.695 695.215 569.757 766.339 656.516C884.948 801.232 1238.35 514.754 1519.36 660.831C1526.28 664.424 1533.2 668.083 1539.98 672.153C1741.87 793.49 1803.64 1100.7 1824.81 1324.93" stroke="#87C5FF" stroke-width="1.97434" stroke-miterlimit="10"/>
<path d="M66.0814 -421.485C351.462 -332.17 612.305 -283.453 730.797 -169.33C812.312 -148.979 859.935 -152.884 874.321 -89.9185C884.479 -45.507 870.994 20.6021 845.411 116.926C763.798 424.802 678.327 562.538 749.941 647.452C871.091 791.11 1233.46 488.986 1521.65 631.906C1528.8 635.453 1535.95 639.09 1542.96 643.138C1750.6 763.233 1815.67 1078.9 1838.8 1308.75" stroke="#87C5FF" stroke-width="1.97434" stroke-miterlimit="10"/>
<path d="M72.7738 -443.01C346.425 -359.381 607.306 -303.668 723.139 -175.739C798.072 -147.617 840.287 -139.937 851.936 -75.2033C860.2 -29.2754 847.076 35.0997 823.232 125.12C746.526 414.924 661.498 555.333 733.596 638.416C857.318 780.988 1228.66 463.154 1523.98 603.025C1531.35 606.524 1538.73 610.138 1545.99 614.196C1759.38 733.016 1827.77 1057.11 1852.87 1292.59" stroke="#87C5FF" stroke-width="1.97434" stroke-miterlimit="10"/>
<path d="M79.4651 -464.537C341.387 -386.585 602.289 -323.867 715.485 -182.146C783.816 -146.298 820.616 -126.997 829.537 -60.4767C835.893 -13.0462 823.156 49.6047 801.038 133.281C729.238 405.022 644.67 548.088 717.24 629.343C843.564 770.798 1223.85 437.258 1526.33 574.073C1533.94 577.519 1541.54 581.114 1549.02 585.132C1768.12 702.811 1839.84 1035.34 1866.89 1276.45" stroke="#87C5FF" stroke-width="1.97434" stroke-miterlimit="10"/>
<path d="M86.1746 -486.08C336.366 -413.814 597.32 -344.113 707.839 -188.569C769.599 -144.923 800.952 -114.091 807.152 -45.7796C811.616 3.1363 799.25 64.0891 778.827 141.451C711.938 395.125 627.838 540.839 700.859 620.288C829.802 760.617 1219 411.358 1528.62 545.186C1536.47 548.574 1544.29 552.156 1552 556.151C1776.86 672.638 1851.89 1013.54 1880.9 1260.32" stroke="#87C5FF" stroke-width="1.97434" stroke-miterlimit="10"/>
<path d="M92.8661 -507.598C331.294 -440.992 536.889 -312.392 700.172 -194.954C761.273 -151.009 781.245 -101.153 784.74 -31.0312C787.279 19.3777 775.313 78.6202 756.608 149.655C694.612 385.271 611.005 533.598 684.469 611.259C816.081 750.384 1214.17 385.399 1530.94 516.26C1539.02 519.599 1547.08 523.172 1555.02 527.14C1785.6 642.463 1863.94 991.728 1894.95 1244.15" stroke="#87C5FF" stroke-width="1.97434" stroke-miterlimit="10"/>
<path d="M99.5543 -529.119C326.296 -468.216 572.1 -375.667 692.527 -201.368C735.967 -138.489 761.55 -88.2609 762.351 -16.3117C762.954 35.581 751.399 93.1136 734.406 157.826C677.322 375.383 594.208 526.306 668.106 602.196C802.391 740.105 1209.35 359.398 1533.26 487.335C1541.58 490.625 1549.85 494.193 1558.04 498.135C1794.15 612.767 1876.03 969.949 1909 1228.01" stroke="#87C5FF" stroke-width="1.97434" stroke-miterlimit="10"/>
<path d="M106.242 -550.642C321.245 -495.433 574.291 -400.796 684.869 -207.77C724.088 -139.297 741.833 -75.3667 739.953 -1.58483C738.611 51.7825 727.471 107.627 712.195 166.004C660.013 365.503 577.11 519.312 651.725 593.149C789.264 729.252 1204.64 332.912 1535.57 458.426C1544.12 461.644 1552.61 465.213 1561.04 469.133C1802.99 582.423 1888.09 948.155 1923.02 1211.84" stroke="#87C5FF" stroke-width="1.97434" stroke-miterlimit="10"/>
<path d="M112.93 -572.163C316.199 -522.636 577.296 -424.941 677.202 -214.171C827.798 103.579 509.607 462.29 635.353 584.103C778.696 722.967 1221.89 285.548 1564.05 440.136C1811.83 552.081 1900.17 926.385 1937.05 1195.7" stroke="#87C5FF" stroke-width="1.97434" stroke-miterlimit="10"/>
</g>
</g>
<defs>
<filter id="filter0_f_1095_11403" x="577.441" y="12.4415" width="973.293" height="973.293" filterUnits="userSpaceOnUse" color-interpolation-filters="sRGB">
<feFlood flood-opacity="0" result="BackgroundImageFix"/>
<feBlend mode="normal" in="SourceGraphic" in2="BackgroundImageFix" result="shape"/>
<feGaussianBlur stdDeviation="120.609" result="effect1_foregroundBlur_1095_11403"/>
</filter>
<filter id="filter1_f_1095_11403" x="656.564" y="-239.339" width="688.05" height="688.049" filterUnits="userSpaceOnUse" color-interpolation-filters="sRGB">
<feFlood flood-opacity="0" result="BackgroundImageFix"/>
<feBlend mode="normal" in="SourceGraphic" in2="BackgroundImageFix" result="shape"/>
<feGaussianBlur stdDeviation="120.609" result="effect1_foregroundBlur_1095_11403"/>
</filter>
<filter id="filter2_f_1095_11403" x="1435.49" y="539.584" width="688.05" height="688.049" filterUnits="userSpaceOnUse" color-interpolation-filters="sRGB">
<feFlood flood-opacity="0" result="BackgroundImageFix"/>
<feBlend mode="normal" in="SourceGraphic" in2="BackgroundImageFix" result="shape"/>
<feGaussianBlur stdDeviation="120.609" result="effect1_foregroundBlur_1095_11403"/>
</filter>
<filter id="filter3_f_1095_11403" x="-247.442" y="-672.579" width="688.049" height="688.049" filterUnits="userSpaceOnUse" color-interpolation-filters="sRGB">
<feFlood flood-opacity="0" result="BackgroundImageFix"/>
<feBlend mode="normal" in="SourceGraphic" in2="BackgroundImageFix" result="shape"/>
<feGaussianBlur stdDeviation="120.609" result="effect1_foregroundBlur_1095_11403"/>
</filter>
<clipPath id="clip0_1095_11403">
<rect width="1527" height="1077" fill="white" transform="translate(-29 -91)"/>
</clipPath>
</defs>
</svg>
