<svg width="194" height="133" viewBox="0 0 194 133" fill="none" xmlns="http://www.w3.org/2000/svg">
<path d="M117.135 49C118.17 49 119.194 49.2037 120.149 49.5994C121.105 49.9952 121.973 50.5753 122.704 51.3065C123.435 52.0378 124.015 52.9059 124.411 53.8614C124.807 54.8168 125.01 55.8408 125.01 56.875V60.039C125.011 61.9309 124.602 63.8006 123.813 65.5199C123.023 67.2392 121.871 68.7675 120.436 70C114.958 74.704 107.115 77 97 77C86.885 77 79.052 74.704 73.585 70C72.1516 68.7683 71.0011 67.2416 70.2122 65.5242C69.4233 63.8069 69.0146 61.9394 69.014 60.0495V56.8715C69.0149 54.7835 69.845 52.7814 71.3217 51.3053C72.7985 49.8292 74.801 49 76.889 49H117.139H117.135ZM96.65 7.021L97 7C97.6343 7.00003 98.2472 7.22975 98.7252 7.64668C99.2033 8.06362 99.5142 8.63956 99.6005 9.268L99.625 9.625L99.6215 12.2465H111.871C113.96 12.2465 115.963 13.0762 117.44 14.553C118.917 16.0299 119.746 18.0329 119.746 20.1215V35.889C119.746 37.9776 118.917 39.9806 117.44 41.4575C115.963 42.9343 113.96 43.764 111.871 43.764H82.1215C80.0329 43.764 78.0299 42.9343 76.553 41.4575C75.0762 39.9806 74.2465 37.9776 74.2465 35.889V20.125C74.2465 19.0905 74.4503 18.0662 74.8463 17.1106C75.2422 16.1549 75.8226 15.2866 76.5542 14.5553C77.2859 13.824 78.1544 13.244 79.1103 12.8484C80.0661 12.4529 81.0905 12.2495 82.125 12.25L94.375 12.2465V9.625C94.3751 8.99014 94.6053 8.37685 95.023 7.89871C95.4406 7.42057 96.0174 7.10999 96.6465 7.0245L97 7L96.643 7.0245L96.65 7.021ZM89.1215 22.75C88.5327 22.7264 87.9452 22.8221 87.3943 23.0311C86.8433 23.2402 86.3403 23.5584 85.9154 23.9667C85.4905 24.3749 85.1524 24.8648 84.9215 25.4069C84.6905 25.949 84.5715 26.5322 84.5715 27.1215C84.5715 27.7108 84.6905 28.294 84.9215 28.8361C85.1524 29.3782 85.4905 29.8681 85.9154 30.2763C86.3403 30.6846 86.8433 31.0028 87.3943 31.2119C87.9452 31.4209 88.5327 31.5166 89.1215 31.493C90.2506 31.4478 91.3184 30.9675 92.1014 30.1526C92.8843 29.3377 93.3215 28.2515 93.3215 27.1215C93.3215 25.9915 92.8843 24.9053 92.1014 24.0904C91.3184 23.2755 90.2506 22.7952 89.1215 22.75V22.75ZM104.847 22.75C104.258 22.7264 103.671 22.8221 103.12 23.0311C102.569 23.2402 102.066 23.5584 101.641 23.9667C101.216 24.3749 100.878 24.8648 100.647 25.4069C100.416 25.949 100.297 26.5322 100.297 27.1215C100.297 27.7108 100.416 28.294 100.647 28.8361C100.878 29.3782 101.216 29.8681 101.641 30.2763C102.066 30.6846 102.569 31.0028 103.12 31.2119C103.671 31.4209 104.258 31.5166 104.847 31.493C105.976 31.4478 107.044 30.9675 107.827 30.1526C108.61 29.3377 109.047 28.2515 109.047 27.1215C109.047 25.9915 108.61 24.9053 107.827 24.0904C107.044 23.2755 105.976 22.7952 104.847 22.75V22.75Z" fill="#8758FF"/>
<path d="M36.81 86.85L41.94 108H49.17L52.14 95.04L55.05 108H62.28L67.47 86.85H61.11L58.65 101.19L55.41 86.85H48.96L45.63 101.31L43.17 86.85H36.81ZM84.4852 108H90.6952L83.0152 86.85H76.2352L68.5252 108H74.7052L75.8452 104.55H83.3452L84.4852 108ZM81.8752 100.05H77.3452L79.5952 93.21L81.8752 100.05ZM103.802 93.96C103.802 95.4 102.992 96.18 101.402 96.18H98.4916V91.77H101.402C102.992 91.77 103.802 92.64 103.802 93.96ZM101.882 86.85H92.6116V108H98.4916V100.2H99.1216L103.322 108H109.892L105.122 99.75C108.272 98.79 109.772 96.39 109.772 93.63C109.772 89.85 107.132 86.85 101.882 86.85ZM126.756 86.85L121.986 102.12L117.186 86.85H110.886L118.206 108H125.736L133.026 86.85H126.756ZM134.858 86.85V108H140.738V86.85H134.858ZM149.966 86.85H144.086V108H156.536V103.5H149.966V86.85Z" fill="#8758FF"/>
<path d="M6.412 119.356L3.892 125.88L1.288 119.356H0.21L3.346 126.958L1.862 130.598H2.884L7.42 119.356H6.412ZM12.0949 127.112C14.2509 127.112 15.9449 125.6 15.9449 123.178C15.9449 120.742 14.2789 119.244 12.1229 119.244C9.98091 119.244 8.30091 120.742 8.30091 123.178C8.30091 125.6 9.93891 127.112 12.0949 127.112ZM12.0949 126.258C10.6389 126.258 9.29491 125.278 9.29491 123.178C9.29491 121.078 10.6529 120.098 12.1089 120.098C13.5649 120.098 14.9369 121.078 14.9369 123.178C14.9369 125.278 13.5369 126.258 12.0949 126.258ZM24.3533 127V119.356H23.3733V123.514C23.3733 125.376 22.3793 126.272 20.9513 126.272C19.5513 126.272 18.6273 125.404 18.6273 123.71V119.356H17.6613V123.822C17.6613 126.062 19.0333 127.126 20.7693 127.126C21.9033 127.126 22.9113 126.622 23.3733 125.656V127H24.3533ZM27.5707 122.73C27.5707 120.812 28.6487 120.238 29.9227 120.238H30.1887V119.216C28.8727 119.216 27.9907 119.776 27.5707 120.714V119.356H26.5907V127H27.5707V122.73ZM34.5948 119.356L36.9888 127H37.9828L40.0968 120.588L42.2108 127H43.1908L45.5848 119.356H44.6188L42.7288 126.02L40.6148 119.356H39.6348L37.4928 126.006L35.5888 119.356H34.5948ZM46.9208 119.356V127H47.9008V119.356H46.9208ZM47.4108 117.914C47.8028 117.914 48.1248 117.606 48.1248 117.186C48.1248 116.766 47.8028 116.472 47.4108 116.472C47.0188 116.472 46.6968 116.766 46.6968 117.186C46.6968 117.606 47.0188 117.914 47.4108 117.914ZM52.752 127.112C54.334 127.112 55.412 126.202 55.412 124.97C55.37 122.268 50.848 123.374 50.848 121.302C50.848 120.63 51.492 120.084 52.514 120.084C53.676 120.084 54.306 120.728 54.362 121.582H55.342C55.258 120.112 54.18 119.244 52.542 119.244C50.932 119.244 49.854 120.182 49.854 121.316C49.854 124.186 54.446 123.08 54.446 124.97C54.446 125.698 53.83 126.286 52.738 126.286C51.492 126.286 50.764 125.684 50.68 124.844H49.672C49.798 126.244 51.016 127.112 52.752 127.112ZM60.5187 120.084C61.9327 120.084 63.2207 120.98 63.1787 122.758H57.8027C57.9147 120.98 59.1327 120.084 60.5187 120.084ZM64.0607 124.578H63.0247C62.7447 125.6 61.8627 126.286 60.5607 126.286C59.1327 126.286 57.8867 125.348 57.8027 123.556H64.1447C64.1727 123.29 64.1727 123.094 64.1727 122.786C64.1727 120.84 62.8007 119.244 60.5607 119.244C58.3627 119.244 56.8087 120.742 56.8087 123.178C56.8087 125.6 58.3907 127.112 60.5607 127.112C62.4787 127.112 63.7107 126.02 64.0607 124.578ZM70.7875 122.73C70.7875 120.812 71.8655 120.238 73.1395 120.238H73.4055V119.216C72.0895 119.216 71.2075 119.776 70.7875 120.714V119.356H69.8075V127H70.7875V122.73ZM78.2258 127.112C80.3818 127.112 82.0758 125.6 82.0758 123.178C82.0758 120.742 80.4098 119.244 78.2538 119.244C76.1118 119.244 74.4318 120.742 74.4318 123.178C74.4318 125.6 76.0698 127.112 78.2258 127.112ZM78.2258 126.258C76.7698 126.258 75.4258 125.278 75.4258 123.178C75.4258 121.078 76.7838 120.098 78.2398 120.098C79.6958 120.098 81.0678 121.078 81.0678 123.178C81.0678 125.278 79.6678 126.258 78.2258 126.258ZM84.8282 121.05V116.64H83.8622V127H84.8282V125.32C85.2902 126.314 86.3402 127.112 87.8662 127.112C89.9522 127.112 91.5062 125.558 91.5062 123.164C91.5062 120.77 89.9662 119.244 87.8662 119.244C86.3682 119.244 85.3042 120.042 84.8282 121.05ZM90.5122 123.164C90.5122 125.096 89.2802 126.258 87.6702 126.258C86.1162 126.258 84.8282 125.082 84.8282 123.178C84.8282 121.274 86.1162 120.098 87.6702 120.098C89.2802 120.098 90.5122 121.218 90.5122 123.164ZM96.6555 127.112C98.8115 127.112 100.505 125.6 100.505 123.178C100.505 120.742 98.8395 119.244 96.6835 119.244C94.5415 119.244 92.8615 120.742 92.8615 123.178C92.8615 125.6 94.4995 127.112 96.6555 127.112ZM96.6555 126.258C95.1995 126.258 93.8555 125.278 93.8555 123.178C93.8555 121.078 95.2135 120.098 96.6695 120.098C98.1255 120.098 99.4975 121.078 99.4975 123.178C99.4975 125.278 98.0975 126.258 96.6555 126.258ZM102.572 117.438V119.356H101.508V120.182H102.572V124.928C102.572 126.454 103.286 127 104.616 127H105.666V126.16H104.77C103.888 126.16 103.566 125.866 103.566 124.928V120.182H105.666V119.356H103.566V117.438H102.572ZM110.676 123.178C110.676 125.6 112.23 127.112 114.386 127.112C116.304 127.112 117.55 126.034 117.9 124.508H116.85C116.584 125.628 115.674 126.286 114.386 126.286C112.888 126.286 111.67 125.25 111.67 123.178C111.67 121.106 112.888 120.084 114.386 120.084C115.674 120.084 116.598 120.756 116.85 121.848H117.9C117.55 120.266 116.304 119.244 114.386 119.244C112.23 119.244 110.676 120.756 110.676 123.178ZM123.056 127.112C125.212 127.112 126.906 125.6 126.906 123.178C126.906 120.742 125.24 119.244 123.084 119.244C120.942 119.244 119.262 120.742 119.262 123.178C119.262 125.6 120.9 127.112 123.056 127.112ZM123.056 126.258C121.6 126.258 120.256 125.278 120.256 123.178C120.256 121.078 121.614 120.098 123.07 120.098C124.526 120.098 125.898 121.078 125.898 123.178C125.898 125.278 124.498 126.258 123.056 126.258ZM139.864 122.632V127H140.83V122.52C140.83 120.28 139.486 119.216 137.792 119.216C136.574 119.216 135.454 119.846 135.034 121.092C134.572 119.818 133.48 119.216 132.206 119.216C131.128 119.216 130.162 119.706 129.672 120.672V119.356H128.692V127H129.672V122.856C129.672 120.994 130.638 120.07 132.038 120.07C133.396 120.07 134.292 120.938 134.292 122.632V127H135.258V122.856C135.258 120.994 136.238 120.07 137.624 120.07C138.982 120.07 139.864 120.938 139.864 122.632ZM143.973 121.036V119.356H143.007V130.612H143.973V125.32C144.421 126.272 145.485 127.112 147.011 127.112C149.097 127.112 150.651 125.558 150.651 123.164C150.651 120.77 149.097 119.244 147.011 119.244C145.485 119.244 144.421 120.07 143.973 121.036ZM149.657 123.164C149.657 125.096 148.425 126.258 146.815 126.258C145.261 126.258 143.973 125.082 143.973 123.178C143.973 121.274 145.261 120.098 146.815 120.098C148.425 120.098 149.657 121.218 149.657 123.164ZM152.006 123.164C152.006 125.558 153.56 127.112 155.646 127.112C157.172 127.112 158.236 126.286 158.684 125.306V127H159.664V119.356H158.684V121.036C158.25 120.07 157.2 119.244 155.66 119.244C153.56 119.244 152.006 120.77 152.006 123.164ZM158.684 123.178C158.684 125.082 157.41 126.258 155.842 126.258C154.232 126.258 153 125.096 153 123.164C153 121.218 154.232 120.098 155.842 120.098C157.41 120.098 158.684 121.274 158.684 123.178ZM167.627 122.632V127H168.593V122.52C168.593 120.28 167.221 119.216 165.485 119.216C164.351 119.216 163.371 119.706 162.881 120.658V119.356H161.901V127H162.881V122.828C162.881 120.966 163.875 120.07 165.303 120.07C166.703 120.07 167.627 120.938 167.627 122.632ZM170.761 119.356V127H171.741V119.356H170.761ZM171.251 117.914C171.643 117.914 171.965 117.606 171.965 117.186C171.965 116.766 171.643 116.472 171.251 116.472C170.859 116.472 170.537 116.766 170.537 117.186C170.537 117.606 170.859 117.914 171.251 117.914ZM177.306 127.112C179.462 127.112 181.156 125.6 181.156 123.178C181.156 120.742 179.49 119.244 177.334 119.244C175.192 119.244 173.512 120.742 173.512 123.178C173.512 125.6 175.15 127.112 177.306 127.112ZM177.306 126.258C175.85 126.258 174.506 125.278 174.506 123.178C174.506 121.078 175.864 120.098 177.32 120.098C178.776 120.098 180.148 121.078 180.148 123.178C180.148 125.278 178.748 126.258 177.306 126.258ZM188.668 122.632V127H189.634V122.52C189.634 120.28 188.262 119.216 186.526 119.216C185.392 119.216 184.412 119.706 183.922 120.658V119.356H182.942V127H183.922V122.828C183.922 120.966 184.916 120.07 186.344 120.07C187.744 120.07 188.668 120.938 188.668 122.632ZM191.97 127.07C192.362 127.07 192.67 126.748 192.67 126.342C192.67 125.936 192.362 125.628 191.97 125.628C191.564 125.628 191.256 125.936 191.256 126.342C191.256 126.748 191.564 127.07 191.97 127.07Z" fill="#565164"/>
</svg>
