<svg width="563" height="221" viewBox="0 0 563 221" fill="none" xmlns="http://www.w3.org/2000/svg">
<g clip-path="url(#clip0_1_2)">
<rect width="563" height="221" fill="white"/>
<path d="M176.215 74.275L183.91 106H194.755L199.21 86.56L203.575 106H214.42L222.205 74.275H212.665L208.975 95.785L204.115 74.275H194.44L189.445 95.965L185.755 74.275H176.215ZM247.728 106H257.043L245.523 74.275H235.353L223.788 106H233.058L234.768 100.825H246.018L247.728 106ZM243.813 94.075H237.018L240.393 83.815L243.813 94.075ZM276.702 84.94C276.702 87.1 275.487 88.27 273.102 88.27H268.737V81.655H273.102C275.487 81.655 276.702 82.96 276.702 84.94ZM273.822 74.275H259.917V106H268.737V94.3H269.682L275.982 106H285.837L278.682 93.625C283.407 92.185 285.657 88.585 285.657 84.445C285.657 78.775 281.697 74.275 273.822 74.275ZM311.133 74.275L303.978 97.18L296.778 74.275H287.328L298.308 106H309.603L320.538 74.275H311.133ZM323.287 74.275V106H332.107V74.275H323.287ZM345.949 74.275H337.129V106H355.804V99.25H345.949V74.275ZM358.334 86.74V94.075H378.719V86.74H358.334ZM402.529 96.1C402.529 97.99 401.404 98.89 399.199 98.89H394.069V93.13H399.154C401.314 93.13 402.529 94.165 402.529 96.1ZM401.854 84.13C401.854 85.975 400.684 86.875 398.524 86.875H394.069V81.295H398.524C400.684 81.295 401.854 82.24 401.854 84.13ZM411.574 97.36C411.574 93.76 409.279 90.565 405.499 89.71C408.604 88.855 410.854 86.335 410.854 82.51C410.854 77.245 406.894 74.275 400.459 74.275H385.249V106H400.954C407.749 106 411.574 102.715 411.574 97.36ZM430.65 106.315C439.65 106.315 446.895 99.565 446.895 90.025C446.895 80.485 439.695 73.78 430.65 73.78C421.65 73.78 414.36 80.485 414.36 90.025C414.36 99.565 421.65 106.315 430.65 106.315ZM430.65 98.125C426.06 98.125 423.36 94.93 423.36 90.025C423.36 85.03 426.06 81.88 430.65 81.88C435.195 81.88 437.94 85.03 437.94 90.025C437.94 94.93 435.195 98.125 430.65 98.125ZM449.105 74.275V81.295H457.475V106H466.295V81.295H474.755V74.275H449.105Z" fill="#8758FF"/>
<path d="M182.322 124.242L185.052 134.014L186.466 134L188.818 126.146L191.086 134H192.514L195.342 124.242H193.97L191.828 132.488L189.588 124.242H188.16L185.808 132.516L183.68 124.242H182.322ZM196.26 130.136C196.26 132.516 197.842 134.126 199.886 134.126C201.3 134.126 202.294 133.398 202.756 132.572V134H204.044V126.328H202.756V127.728C202.308 126.93 201.328 126.202 199.9 126.202C197.842 126.202 196.26 127.742 196.26 130.136ZM202.756 130.15C202.756 131.956 201.552 133.006 200.152 133.006C198.752 133.006 197.562 131.942 197.562 130.136C197.562 128.33 198.752 127.308 200.152 127.308C201.552 127.308 202.756 128.372 202.756 130.15ZM207.471 129.828C207.471 128.05 208.395 127.504 209.613 127.504H209.949V126.188C208.731 126.188 207.905 126.72 207.471 127.574V126.328H206.197V134H207.471V129.828ZM211.882 126.328H210.51L213.52 134H215.004L218.014 126.328H216.656L214.276 132.824L211.882 126.328ZM219.267 126.328V134H220.541V126.328H219.267ZM219.925 125.082C220.387 125.082 220.765 124.704 220.765 124.214C220.765 123.724 220.387 123.346 219.925 123.346C219.435 123.346 219.057 123.724 219.057 124.214C219.057 124.704 219.435 125.082 219.925 125.082ZM222.713 123.64V134H223.987V123.64H222.713ZM229.891 126.328V134H231.165V126.328H229.891ZM230.549 125.082C231.011 125.082 231.389 124.704 231.389 124.214C231.389 123.724 231.011 123.346 230.549 123.346C230.059 123.346 229.681 123.724 229.681 124.214C229.681 124.704 230.059 125.082 230.549 125.082ZM236.052 134.126C237.746 134.126 238.852 133.174 238.852 131.914C238.796 129.17 234.344 130.164 234.344 128.344C234.344 127.728 234.904 127.28 235.842 127.28C236.864 127.28 237.452 127.84 237.508 128.61H238.782C238.698 127.112 237.578 126.202 235.884 126.202C234.176 126.202 233.07 127.168 233.07 128.344C233.07 131.2 237.606 130.206 237.606 131.914C237.606 132.544 237.046 133.048 236.038 133.048C234.96 133.048 234.302 132.488 234.232 131.746H232.916C233 133.146 234.26 134.126 236.052 134.126ZM243.907 130.136C243.907 132.516 245.489 134.126 247.533 134.126C248.947 134.126 249.941 133.398 250.403 132.572V134H251.691V126.328H250.403V127.728C249.955 126.93 248.975 126.202 247.547 126.202C245.489 126.202 243.907 127.742 243.907 130.136ZM250.403 130.15C250.403 131.956 249.199 133.006 247.799 133.006C246.399 133.006 245.209 131.942 245.209 130.136C245.209 128.33 246.399 127.308 247.799 127.308C249.199 127.308 250.403 128.372 250.403 130.15ZM259.458 129.66V134H260.718V129.478C260.718 127.28 259.36 126.188 257.582 126.188C256.546 126.188 255.622 126.622 255.118 127.42V126.328H253.844V134H255.118V129.758C255.118 128.106 256.014 127.294 257.316 127.294C258.604 127.294 259.458 128.092 259.458 129.66ZM273.083 134H274.427L270.913 124.298H269.443L265.915 134H267.259L268.043 131.83H272.299L273.083 134ZM271.935 130.794H268.407L270.171 125.866L271.935 130.794ZM275.965 124.242V134H277.239V124.242H275.965ZM284.416 127.756V123.64H283.142V134H284.416V132.586C284.892 133.426 285.886 134.126 287.286 134.126C289.344 134.126 290.926 132.516 290.926 130.136C290.926 127.742 289.358 126.202 287.286 126.202C285.928 126.202 284.906 126.902 284.416 127.756ZM289.624 130.136C289.624 131.942 288.434 133.006 287.02 133.006C285.634 133.006 284.416 131.956 284.416 130.15C284.416 128.372 285.634 127.308 287.02 127.308C288.434 127.308 289.624 128.33 289.624 130.136ZM295.949 134.126C298.133 134.126 299.883 132.586 299.883 130.15C299.883 127.728 298.189 126.202 296.005 126.202C293.835 126.202 292.127 127.728 292.127 130.15C292.127 132.586 293.779 134.126 295.949 134.126ZM295.949 133.006C294.619 133.006 293.429 132.096 293.429 130.15C293.429 128.218 294.647 127.308 295.991 127.308C297.307 127.308 298.581 128.218 298.581 130.15C298.581 132.096 297.279 133.006 295.949 133.006ZM301.838 124.396V126.328H300.844V127.378H301.838V131.9C301.838 133.44 302.608 134 303.966 134H305.114V132.922H304.176C303.392 132.922 303.112 132.656 303.112 131.9V127.378H305.114V126.328H303.112V124.396H301.838ZM310.671 124.396V126.328H309.677V127.378H310.671V131.9C310.671 133.44 311.441 134 312.799 134H313.947V132.922H313.008C312.225 132.922 311.945 132.656 311.945 131.9V127.378H313.947V126.328H311.945V124.396H310.671ZM315.49 123.64V134H316.764V129.758C316.764 128.106 317.66 127.294 318.962 127.294C320.25 127.294 321.104 128.092 321.104 129.66V134H322.364V129.478C322.364 127.28 321.006 126.188 319.298 126.188C318.22 126.188 317.268 126.622 316.764 127.434V123.64H315.49ZM323.969 130.136C323.969 132.516 325.551 134.126 327.595 134.126C329.009 134.126 330.003 133.398 330.465 132.572V134H331.753V126.328H330.465V127.728C330.017 126.93 329.037 126.202 327.609 126.202C325.551 126.202 323.969 127.742 323.969 130.136ZM330.465 130.15C330.465 131.956 329.261 133.006 327.861 133.006C326.461 133.006 325.271 131.942 325.271 130.136C325.271 128.33 326.461 127.308 327.861 127.308C329.261 127.308 330.465 128.372 330.465 130.15ZM334.186 124.396V126.328H333.192V127.378H334.186V131.9C334.186 133.44 334.956 134 336.314 134H337.462V132.922H336.524C335.74 132.922 335.46 132.656 335.46 131.9V127.378H337.462V126.328H335.46V124.396H334.186ZM345.454 134.126C347.148 134.126 348.254 133.174 348.254 131.914C348.198 129.17 343.746 130.164 343.746 128.344C343.746 127.728 344.306 127.28 345.244 127.28C346.266 127.28 346.854 127.84 346.91 128.61H348.184C348.1 127.112 346.98 126.202 345.286 126.202C343.578 126.202 342.472 127.168 342.472 128.344C342.472 131.2 347.008 130.206 347.008 131.914C347.008 132.544 346.448 133.048 345.44 133.048C344.362 133.048 343.704 132.488 343.634 131.746H342.318C342.402 133.146 343.662 134.126 345.454 134.126ZM353.315 127.28C354.631 127.28 355.751 128.106 355.737 129.604H350.893C351.033 128.106 352.069 127.28 353.315 127.28ZM356.899 131.634H355.527C355.247 132.46 354.519 133.048 353.371 133.048C352.069 133.048 350.977 132.194 350.879 130.64H357.011C357.039 130.374 357.053 130.15 357.053 129.87C357.053 127.77 355.597 126.202 353.371 126.202C351.131 126.202 349.577 127.728 349.577 130.15C349.577 132.586 351.187 134.126 353.371 134.126C355.275 134.126 356.507 133.034 356.899 131.634ZM361.996 127.28C363.312 127.28 364.432 128.106 364.418 129.604H359.574C359.714 128.106 360.75 127.28 361.996 127.28ZM365.58 131.634H364.208C363.928 132.46 363.2 133.048 362.052 133.048C360.75 133.048 359.658 132.194 359.56 130.64H365.692C365.72 130.374 365.734 130.15 365.734 129.87C365.734 127.77 364.278 126.202 362.052 126.202C359.812 126.202 358.258 127.728 358.258 130.15C358.258 132.586 359.868 134.126 362.052 134.126C363.956 134.126 365.188 133.034 365.58 131.634ZM367.416 123.64V134H368.69V130.612L371.7 134H373.436L369.81 130.15L373.422 126.328H371.644L368.69 129.73V123.64H367.416ZM377.337 134.126C379.031 134.126 380.137 133.174 380.137 131.914C380.081 129.17 375.629 130.164 375.629 128.344C375.629 127.728 376.189 127.28 377.127 127.28C378.149 127.28 378.737 127.84 378.793 128.61H380.067C379.983 127.112 378.863 126.202 377.169 126.202C375.461 126.202 374.355 127.168 374.355 128.344C374.355 131.2 378.891 130.206 378.891 131.914C378.891 132.544 378.331 133.048 377.323 133.048C376.245 133.048 375.587 132.488 375.517 131.746H374.201C374.285 133.146 375.545 134.126 377.337 134.126ZM385.948 124.396V126.328H384.954V127.378H385.948V131.9C385.948 133.44 386.718 134 388.076 134H389.224V132.922H388.286C387.502 132.922 387.222 132.656 387.222 131.9V127.378H389.224V126.328H387.222V124.396H385.948ZM394.113 134.126C396.297 134.126 398.047 132.586 398.047 130.15C398.047 127.728 396.353 126.202 394.169 126.202C391.999 126.202 390.291 127.728 390.291 130.15C390.291 132.586 391.943 134.126 394.113 134.126ZM394.113 133.006C392.783 133.006 391.593 132.096 391.593 130.15C391.593 128.218 392.811 127.308 394.155 127.308C395.471 127.308 396.745 128.218 396.745 130.15C396.745 132.096 395.443 133.006 394.113 133.006ZM404.729 129.828C404.729 128.05 405.653 127.504 406.871 127.504H407.207V126.188C405.989 126.188 405.163 126.72 404.729 127.574V126.328H403.455V134H404.729V129.828ZM411.94 127.28C413.256 127.28 414.376 128.106 414.362 129.604H409.518C409.658 128.106 410.694 127.28 411.94 127.28ZM415.524 131.634H414.152C413.872 132.46 413.144 133.048 411.996 133.048C410.694 133.048 409.602 132.194 409.504 130.64H415.636C415.664 130.374 415.678 130.15 415.678 129.87C415.678 127.77 414.222 126.202 411.996 126.202C409.756 126.202 408.202 127.728 408.202 130.15C408.202 132.586 409.812 134.126 411.996 134.126C413.9 134.126 415.132 133.034 415.524 131.634ZM420.075 134.126C421.769 134.126 422.875 133.174 422.875 131.914C422.819 129.17 418.367 130.164 418.367 128.344C418.367 127.728 418.927 127.28 419.865 127.28C420.887 127.28 421.475 127.84 421.531 128.61H422.805C422.721 127.112 421.601 126.202 419.907 126.202C418.199 126.202 417.093 127.168 417.093 128.344C417.093 131.2 421.629 130.206 421.629 131.914C421.629 132.544 421.069 133.048 420.061 133.048C418.983 133.048 418.325 132.488 418.255 131.746H416.939C417.023 133.146 418.283 134.126 420.075 134.126ZM425.948 127.742V126.328H424.674V137.64H425.948V132.586C426.424 133.37 427.418 134.126 428.818 134.126C430.876 134.126 432.458 132.516 432.458 130.136C432.458 127.742 430.876 126.202 428.818 126.202C427.418 126.202 426.41 126.93 425.948 127.742ZM431.156 130.136C431.156 131.942 429.966 133.006 428.552 133.006C427.166 133.006 425.948 131.956 425.948 130.15C425.948 128.372 427.166 127.308 428.552 127.308C429.966 127.308 431.156 128.33 431.156 130.136ZM437.481 134.126C439.665 134.126 441.415 132.586 441.415 130.15C441.415 127.728 439.721 126.202 437.537 126.202C435.367 126.202 433.659 127.728 433.659 130.15C433.659 132.586 435.311 134.126 437.481 134.126ZM437.481 133.006C436.151 133.006 434.961 132.096 434.961 130.15C434.961 128.218 436.179 127.308 437.523 127.308C438.839 127.308 440.113 128.218 440.113 130.15C440.113 132.096 438.811 133.006 437.481 133.006ZM448.704 129.66V134H449.964V129.478C449.964 127.28 448.606 126.188 446.828 126.188C445.792 126.188 444.868 126.622 444.364 127.42V126.328H443.09V134H444.364V129.758C444.364 128.106 445.26 127.294 446.562 127.294C447.85 127.294 448.704 128.092 448.704 129.66ZM451.569 130.136C451.569 132.516 453.151 134.126 455.209 134.126C456.609 134.126 457.603 133.412 458.065 132.558V134H459.353V123.64H458.065V127.7C457.533 126.818 456.427 126.202 455.223 126.202C453.151 126.202 451.569 127.742 451.569 130.136ZM458.065 130.15C458.065 131.956 456.861 133.006 455.461 133.006C454.061 133.006 452.871 131.942 452.871 130.136C452.871 128.33 454.061 127.308 455.461 127.308C456.861 127.308 458.065 128.372 458.065 130.15ZM465.518 124.396V126.328H464.524V127.378H465.518V131.9C465.518 133.44 466.288 134 467.646 134H468.794V132.922H467.856C467.072 132.922 466.792 132.656 466.792 131.9V127.378H468.794V126.328H466.792V124.396H465.518ZM473.684 134.126C475.868 134.126 477.618 132.586 477.618 130.15C477.618 127.728 475.924 126.202 473.74 126.202C471.57 126.202 469.862 127.728 469.862 130.15C469.862 132.586 471.514 134.126 473.684 134.126ZM473.684 133.006C472.354 133.006 471.164 132.096 471.164 130.15C471.164 128.218 472.382 127.308 473.726 127.308C475.042 127.308 476.316 128.218 476.316 130.15C476.316 132.096 475.014 133.006 473.684 133.006ZM188.37 144.328L185.99 150.544L183.582 144.328H182.168L185.262 151.916L183.75 155.612H185.066L189.686 144.328H188.37ZM194.313 152.126C196.497 152.126 198.247 150.586 198.247 148.15C198.247 145.728 196.553 144.202 194.369 144.202C192.199 144.202 190.491 145.728 190.491 148.15C190.491 150.586 192.143 152.126 194.313 152.126ZM194.313 151.006C192.983 151.006 191.793 150.096 191.793 148.15C191.793 146.218 193.011 145.308 194.355 145.308C195.671 145.308 196.945 146.218 196.945 148.15C196.945 150.096 195.643 151.006 194.313 151.006ZM206.726 152V144.328H205.452V148.542C205.452 150.194 204.57 151.006 203.254 151.006C201.966 151.006 201.112 150.208 201.112 148.654V144.328H199.852V148.822C199.852 151.02 201.238 152.112 203.002 152.112C204.024 152.112 204.962 151.664 205.452 150.866V152H206.726ZM210.151 147.828C210.151 146.05 211.075 145.504 212.293 145.504H212.629V144.188C211.411 144.188 210.585 144.72 210.151 145.574V144.328H208.877V152H210.151V147.828ZM217.356 148.136C217.356 150.516 218.938 152.126 220.968 152.126C222.396 152.126 223.418 151.37 223.852 150.586V155.64H225.14V144.328H223.852V145.728C223.418 144.93 222.41 144.202 221.01 144.202C218.938 144.202 217.356 145.742 217.356 148.136ZM223.852 148.15C223.852 149.956 222.648 151.006 221.248 151.006C219.848 151.006 218.658 149.942 218.658 148.136C218.658 146.33 219.848 145.308 221.248 145.308C222.648 145.308 223.852 146.372 223.852 148.15ZM234.097 152V144.328H232.823V148.542C232.823 150.194 231.941 151.006 230.625 151.006C229.337 151.006 228.483 150.208 228.483 148.654V144.328H227.223V148.822C227.223 151.02 228.609 152.112 230.373 152.112C231.395 152.112 232.333 151.664 232.823 150.866V152H234.097ZM239.51 145.28C240.826 145.28 241.946 146.106 241.932 147.604H237.088C237.228 146.106 238.264 145.28 239.51 145.28ZM243.094 149.634H241.722C241.442 150.46 240.714 151.048 239.566 151.048C238.264 151.048 237.172 150.194 237.074 148.64H243.206C243.234 148.374 243.248 148.15 243.248 147.87C243.248 145.77 241.792 144.202 239.566 144.202C237.326 144.202 235.772 145.728 235.772 148.15C235.772 150.586 237.382 152.126 239.566 152.126C241.47 152.126 242.702 151.034 243.094 149.634ZM246.204 147.828C246.204 146.05 247.128 145.504 248.346 145.504H248.682V144.188C247.464 144.188 246.638 144.72 246.204 145.574V144.328H244.93V152H246.204V147.828ZM250.152 144.328V152H251.426V144.328H250.152ZM250.81 143.082C251.272 143.082 251.65 142.704 251.65 142.214C251.65 141.724 251.272 141.346 250.81 141.346C250.32 141.346 249.942 141.724 249.942 142.214C249.942 142.704 250.32 143.082 250.81 143.082ZM256.86 145.28C258.176 145.28 259.296 146.106 259.282 147.604H254.438C254.578 146.106 255.614 145.28 256.86 145.28ZM260.444 149.634H259.072C258.792 150.46 258.064 151.048 256.916 151.048C255.614 151.048 254.522 150.194 254.424 148.64H260.556C260.584 148.374 260.598 148.15 260.598 147.87C260.598 145.77 259.142 144.202 256.916 144.202C254.676 144.202 253.122 145.728 253.122 148.15C253.122 150.586 254.732 152.126 256.916 152.126C258.82 152.126 260.052 151.034 260.444 149.634ZM264.995 152.126C266.689 152.126 267.795 151.174 267.795 149.914C267.739 147.17 263.287 148.164 263.287 146.344C263.287 145.728 263.847 145.28 264.785 145.28C265.807 145.28 266.395 145.84 266.451 146.61H267.725C267.641 145.112 266.521 144.202 264.827 144.202C263.119 144.202 262.013 145.168 262.013 146.344C262.013 149.2 266.549 148.206 266.549 149.914C266.549 150.544 265.989 151.048 264.981 151.048C263.903 151.048 263.245 150.488 263.175 149.746H261.859C261.943 151.146 263.203 152.126 264.995 152.126ZM272.85 148.136C272.85 150.516 274.432 152.126 276.476 152.126C277.89 152.126 278.884 151.398 279.346 150.572V152H280.634V144.328H279.346V145.728C278.898 144.93 277.918 144.202 276.49 144.202C274.432 144.202 272.85 145.742 272.85 148.136ZM279.346 148.15C279.346 149.956 278.142 151.006 276.742 151.006C275.342 151.006 274.152 149.942 274.152 148.136C274.152 146.33 275.342 145.308 276.742 145.308C278.142 145.308 279.346 146.372 279.346 148.15ZM284.061 145.756V141.64H282.787V152H284.061V150.586C284.537 151.426 285.531 152.126 286.931 152.126C288.989 152.126 290.571 150.516 290.571 148.136C290.571 145.742 289.003 144.202 286.931 144.202C285.573 144.202 284.551 144.902 284.061 145.756ZM289.269 148.136C289.269 149.942 288.079 151.006 286.665 151.006C285.279 151.006 284.061 149.956 284.061 148.15C284.061 146.372 285.279 145.308 286.665 145.308C288.079 145.308 289.269 146.33 289.269 148.136ZM295.594 152.126C297.778 152.126 299.528 150.586 299.528 148.15C299.528 145.728 297.834 144.202 295.65 144.202C293.48 144.202 291.772 145.728 291.772 148.15C291.772 150.586 293.424 152.126 295.594 152.126ZM295.594 151.006C294.264 151.006 293.074 150.096 293.074 148.15C293.074 146.218 294.292 145.308 295.636 145.308C296.952 145.308 298.226 146.218 298.226 148.15C298.226 150.096 296.924 151.006 295.594 151.006ZM308.007 152V144.328H306.733V148.542C306.733 150.194 305.851 151.006 304.535 151.006C303.247 151.006 302.393 150.208 302.393 148.654V144.328H301.133V148.822C301.133 151.02 302.519 152.112 304.283 152.112C305.305 152.112 306.243 151.664 306.733 150.866V152H308.007ZM310.438 142.396V144.328H309.444V145.378H310.438V149.9C310.438 151.44 311.208 152 312.566 152H313.714V150.922H312.776C311.992 150.922 311.712 150.656 311.712 149.9V145.378H313.714V144.328H311.712V142.396H310.438ZM322.616 142.242V149.452C322.616 150.264 322.21 150.964 321.202 150.964C320.194 150.964 319.774 150.25 319.76 149.354H318.486C318.486 151.062 319.578 152.098 321.202 152.098C322.812 152.098 323.904 151.076 323.904 149.452V142.242H322.616ZM325.938 148.136C325.938 150.516 327.52 152.126 329.564 152.126C330.978 152.126 331.972 151.398 332.434 150.572V152H333.722V144.328H332.434V145.728C331.986 144.93 331.006 144.202 329.578 144.202C327.52 144.202 325.938 145.742 325.938 148.136ZM332.434 148.15C332.434 149.956 331.23 151.006 329.83 151.006C328.43 151.006 327.24 149.942 327.24 148.136C327.24 146.33 328.43 145.308 329.83 145.308C331.23 145.308 332.434 146.372 332.434 148.15ZM336.337 144.328H334.965L337.975 152H339.459L342.469 144.328H341.111L338.731 150.824L336.337 144.328ZM343.247 148.136C343.247 150.516 344.829 152.126 346.873 152.126C348.287 152.126 349.281 151.398 349.743 150.572V152H351.031V144.328H349.743V145.728C349.295 144.93 348.315 144.202 346.887 144.202C344.829 144.202 343.247 145.742 343.247 148.136ZM349.743 148.15C349.743 149.956 348.539 151.006 347.139 151.006C345.739 151.006 344.549 149.942 344.549 148.136C344.549 146.33 345.739 145.308 347.139 145.308C348.539 145.308 349.743 146.372 349.743 148.15ZM355.899 152.126C357.593 152.126 358.699 151.174 358.699 149.914C358.643 147.17 354.191 148.164 354.191 146.344C354.191 145.728 354.751 145.28 355.689 145.28C356.711 145.28 357.299 145.84 357.355 146.61H358.629C358.545 145.112 357.425 144.202 355.731 144.202C354.023 144.202 352.917 145.168 352.917 146.344C352.917 149.2 357.453 148.206 357.453 149.914C357.453 150.544 356.893 151.048 355.885 151.048C354.807 151.048 354.149 150.488 354.079 149.746H352.763C352.847 151.146 354.107 152.126 355.899 152.126ZM360.022 148.15C360.022 150.586 361.576 152.126 363.76 152.126C365.664 152.126 366.91 151.062 367.302 149.536H365.93C365.65 150.502 364.894 151.048 363.76 151.048C362.36 151.048 361.324 150.054 361.324 148.15C361.324 146.274 362.36 145.28 363.76 145.28C364.894 145.28 365.664 145.868 365.93 146.792H367.302C366.91 145.182 365.664 144.202 363.76 144.202C361.576 144.202 360.022 145.742 360.022 148.15ZM370.276 147.828C370.276 146.05 371.2 145.504 372.418 145.504H372.754V144.188C371.536 144.188 370.71 144.72 370.276 145.574V144.328H369.002V152H370.276V147.828ZM374.224 144.328V152H375.498V144.328H374.224ZM374.882 143.082C375.344 143.082 375.722 142.704 375.722 142.214C375.722 141.724 375.344 141.346 374.882 141.346C374.392 141.346 374.014 141.724 374.014 142.214C374.014 142.704 374.392 143.082 374.882 143.082ZM378.944 145.742V144.328H377.67V155.64H378.944V150.586C379.42 151.37 380.414 152.126 381.814 152.126C383.872 152.126 385.454 150.516 385.454 148.136C385.454 145.742 383.872 144.202 381.814 144.202C380.414 144.202 379.406 144.93 378.944 145.742ZM384.152 148.136C384.152 149.942 382.962 151.006 381.548 151.006C380.162 151.006 378.944 149.956 378.944 148.15C378.944 146.372 380.162 145.308 381.548 145.308C382.962 145.308 384.152 146.33 384.152 148.136ZM387.411 142.396V144.328H386.417V145.378H387.411V149.9C387.411 151.44 388.181 152 389.539 152H390.687V150.922H389.749C388.965 150.922 388.685 150.656 388.685 149.9V145.378H390.687V144.328H388.685V142.396H387.411ZM392.636 152.084C393.098 152.084 393.476 151.706 393.476 151.216C393.476 150.726 393.098 150.348 392.636 150.348C392.146 150.348 391.768 150.726 391.768 151.216C391.768 151.706 392.146 152.084 392.636 152.084Z" fill="#6D6B71"/>
<path d="M144.286 124.833C145.738 124.833 147.177 125.119 148.519 125.675C149.861 126.231 151.081 127.046 152.108 128.073C153.135 129.101 153.95 130.32 154.506 131.662C155.062 133.005 155.348 134.443 155.348 135.896V140.341C155.349 142.998 154.775 145.625 153.666 148.04C152.557 150.455 150.938 152.602 148.922 154.333C141.227 160.941 130.209 164.167 116 164.167C101.791 164.167 90.7873 160.941 83.1075 154.333C81.0939 152.603 79.4778 150.458 78.3696 148.046C77.2613 145.633 76.6872 143.01 76.6863 140.355V135.891C76.6876 132.958 77.8537 130.145 79.9282 128.072C82.0027 125.998 84.8157 124.833 87.7488 124.833H144.29H144.286ZM115.508 65.8628L116 65.8333C116.891 65.8334 117.752 66.1561 118.424 66.7418C119.095 67.3275 119.532 68.1365 119.653 69.0193L119.687 69.5208L119.683 73.2034H136.891C139.825 73.2034 142.639 74.3689 144.713 76.4436C146.788 78.5182 147.953 81.332 147.953 84.2659V106.416C147.953 109.349 146.788 112.163 144.713 114.238C142.639 116.313 139.825 117.478 136.891 117.478H95.0992C92.1653 117.478 89.3515 116.313 87.2769 114.238C85.2022 112.163 84.0367 109.349 84.0367 106.416V84.2708C84.0367 82.8177 84.323 81.3788 84.8793 80.0363C85.4355 78.6938 86.2508 77.474 87.2786 76.4467C88.3064 75.4194 89.5265 74.6047 90.8692 74.049C92.2119 73.4934 93.651 73.2077 95.1042 73.2083L112.312 73.2034V69.5208C112.313 68.629 112.636 67.7675 113.223 67.0958C113.809 66.4241 114.62 65.9879 115.503 65.8678L116 65.8333L115.498 65.8678L115.508 65.8628ZM104.933 87.9583C104.105 87.9252 103.28 88.0596 102.506 88.3533C101.732 88.6469 101.026 89.094 100.429 89.6675C99.8319 90.241 99.357 90.9291 99.0326 91.6907C98.7082 92.4522 98.541 93.2715 98.541 94.0993C98.541 94.927 98.7082 95.7463 99.0326 96.5078C99.357 97.2694 99.8319 97.9576 100.429 98.5311C101.026 99.1046 101.732 99.5516 102.506 99.8453C103.28 100.139 104.105 100.273 104.933 100.24C106.519 100.177 108.019 99.5019 109.119 98.3572C110.218 97.2125 110.833 95.6867 110.833 94.0993C110.833 92.5118 110.218 90.986 109.119 89.8413C108.019 88.6966 106.519 88.0218 104.933 87.9583V87.9583ZM127.023 87.9583C126.196 87.9252 125.371 88.0596 124.597 88.3533C123.823 88.6469 123.116 89.094 122.519 89.6675C121.922 90.241 121.448 90.9291 121.123 91.6907C120.799 92.4522 120.632 93.2715 120.632 94.0993C120.632 94.927 120.799 95.7463 121.123 96.5078C121.448 97.2694 121.922 97.9576 122.519 98.5311C123.116 99.1046 123.823 99.5516 124.597 99.8453C125.371 100.139 126.196 100.273 127.023 100.24C128.609 100.177 130.109 99.5019 131.209 98.3572C132.309 97.2125 132.923 95.6867 132.923 94.0993C132.923 92.5118 132.309 90.986 131.209 89.8413C130.109 88.6966 128.609 88.0218 127.023 87.9583V87.9583Z" fill="#8758FF"/>
<g opacity="0.2">
<path d="M215.239 176.5C220.336 176.5 225.383 177.504 230.092 179.454C234.801 181.405 239.08 184.264 242.684 187.868C246.288 191.472 249.147 195.751 251.097 200.46C253.048 205.169 254.052 210.216 254.052 215.313V230.906C254.054 240.231 252.041 249.446 248.149 257.919C244.258 266.393 238.58 273.925 231.506 280C204.51 303.184 165.852 314.5 116 314.5C66.1475 314.5 27.542 303.184 0.597466 280C-6.46706 273.929 -12.1373 266.405 -16.0255 257.941C-19.9137 249.477 -21.9281 240.273 -21.931 230.958V215.295C-21.9265 205.005 -17.8353 195.137 -10.557 187.862C-3.27876 180.587 6.59074 176.5 16.8815 176.5H215.256H215.239ZM114.275 -30.3965L116 -30.5C119.126 -30.4998 122.147 -29.3676 124.503 -27.3127C126.859 -25.2578 128.392 -22.4193 128.817 -19.322L128.937 -17.5625L128.92 -4.64222H189.295C199.589 -4.64222 209.461 -0.553064 216.74 6.72569C224.019 14.0044 228.108 23.8766 228.108 34.1703V111.882C228.108 122.175 224.019 132.047 216.74 139.326C209.461 146.605 199.589 150.694 189.295 150.694H42.6702C32.3765 150.694 22.5044 146.605 15.2256 139.326C7.94688 132.047 3.85772 122.175 3.85772 111.882V34.1875C3.85772 29.0891 4.8622 24.0407 6.81379 19.3306C8.76538 14.6206 11.6258 10.3411 15.2317 6.73684C18.8376 3.13255 23.1183 0.273998 27.8293 -1.6755C32.5402 -3.62499 37.5891 -4.62724 42.6875 -4.62497L103.062 -4.64222V-17.5625C103.063 -20.6914 104.198 -23.7141 106.256 -26.0706C108.315 -28.4271 111.157 -29.9579 114.258 -30.3792L116 -30.5L114.24 -30.3792L114.275 -30.3965ZM77.1702 47.125C74.2683 47.0089 71.3729 47.4801 68.6576 48.5106C65.9423 49.541 63.4631 51.1093 61.3689 53.1214C59.2746 55.1335 57.6084 57.5479 56.4702 60.2198C55.3321 62.8918 54.7454 65.766 54.7454 68.6703C54.7454 71.5745 55.3321 74.4488 56.4702 77.1207C57.6084 79.7926 59.2746 82.207 61.3689 84.2191C63.4631 86.2313 65.9423 87.7996 68.6576 88.83C71.3729 89.8604 74.2683 90.3317 77.1702 90.2155C82.7352 89.9928 87.9981 87.6254 91.8568 83.6093C95.7154 79.5931 97.8704 74.2397 97.8704 68.6703C97.8704 63.1008 95.7154 57.7474 91.8568 53.7313C87.9981 49.7151 82.7352 47.3478 77.1702 47.125V47.125ZM154.674 47.125C151.773 47.0089 148.877 47.4801 146.162 48.5106C143.447 49.541 140.967 51.1093 138.873 53.1214C136.779 55.1335 135.113 57.5479 133.975 60.2198C132.836 62.8918 132.25 65.766 132.25 68.6703C132.25 71.5745 132.836 74.4488 133.975 77.1207C135.113 79.7926 136.779 82.207 138.873 84.2191C140.967 86.2313 143.447 87.7996 146.162 88.83C148.877 89.8604 151.773 90.3317 154.674 90.2155C160.239 89.9928 165.502 87.6254 169.361 83.6093C173.22 79.5931 175.375 74.2397 175.375 68.6703C175.375 63.1008 173.22 57.7474 169.361 53.7313C165.502 49.7151 160.239 47.3478 154.674 47.125V47.125Z" fill="#858094"/>
</g>
</g>
<defs>
<clipPath id="clip0_1_2">
<rect width="563" height="221" fill="white"/>
</clipPath>
</defs>
</svg>
