<svg width="817" height="221" viewBox="0 0 817 221" fill="none" xmlns="http://www.w3.org/2000/svg">
<g clip-path="url(#clip0_1_2)">
<rect width="817" height="221" fill="white"/>
<path d="M350.215 78.275L357.91 110H368.755L373.21 90.56L377.575 110H388.42L396.205 78.275H386.665L382.975 99.785L378.115 78.275H368.44L363.445 99.965L359.755 78.275H350.215ZM421.728 110H431.043L419.523 78.275H409.353L397.788 110H407.058L408.768 104.825H420.018L421.728 110ZM417.813 98.075H411.018L414.393 87.815L417.813 98.075ZM450.702 88.94C450.702 91.1 449.487 92.27 447.102 92.27H442.737V85.655H447.102C449.487 85.655 450.702 86.96 450.702 88.94ZM447.822 78.275H433.917V110H442.737V98.3H443.682L449.982 110H459.837L452.682 97.625C457.407 96.185 459.657 92.585 459.657 88.445C459.657 82.775 455.697 78.275 447.822 78.275ZM485.133 78.275L477.978 101.18L470.778 78.275H461.328L472.308 110H483.603L494.538 78.275H485.133ZM497.287 78.275V110H506.107V78.275H497.287ZM519.949 78.275H511.129V110H529.804V103.25H519.949V78.275ZM532.334 90.74V98.075H552.719V90.74H532.334ZM576.529 100.1C576.529 101.99 575.404 102.89 573.199 102.89H568.069V97.13H573.154C575.314 97.13 576.529 98.165 576.529 100.1ZM575.854 88.13C575.854 89.975 574.684 90.875 572.524 90.875H568.069V85.295H572.524C574.684 85.295 575.854 86.24 575.854 88.13ZM585.574 101.36C585.574 97.76 583.279 94.565 579.499 93.71C582.604 92.855 584.854 90.335 584.854 86.51C584.854 81.245 580.894 78.275 574.459 78.275H559.249V110H574.954C581.749 110 585.574 106.715 585.574 101.36ZM604.65 110.315C613.65 110.315 620.895 103.565 620.895 94.025C620.895 84.485 613.695 77.78 604.65 77.78C595.65 77.78 588.36 84.485 588.36 94.025C588.36 103.565 595.65 110.315 604.65 110.315ZM604.65 102.125C600.06 102.125 597.36 98.93 597.36 94.025C597.36 89.03 600.06 85.88 604.65 85.88C609.195 85.88 611.94 89.03 611.94 94.025C611.94 98.93 609.195 102.125 604.65 102.125ZM623.105 78.275V85.295H631.475V110H640.295V85.295H648.755V78.275H623.105Z" fill="#8758FF"/>
<path d="M356.322 128.242L359.052 138.014L360.466 138L362.818 130.146L365.086 138H366.514L369.342 128.242H367.97L365.828 136.488L363.588 128.242H362.16L359.808 136.516L357.68 128.242H356.322ZM370.26 134.136C370.26 136.516 371.842 138.126 373.886 138.126C375.3 138.126 376.294 137.398 376.756 136.572V138H378.044V130.328H376.756V131.728C376.308 130.93 375.328 130.202 373.9 130.202C371.842 130.202 370.26 131.742 370.26 134.136ZM376.756 134.15C376.756 135.956 375.552 137.006 374.152 137.006C372.752 137.006 371.562 135.942 371.562 134.136C371.562 132.33 372.752 131.308 374.152 131.308C375.552 131.308 376.756 132.372 376.756 134.15ZM381.471 133.828C381.471 132.05 382.395 131.504 383.613 131.504H383.949V130.188C382.731 130.188 381.905 130.72 381.471 131.574V130.328H380.197V138H381.471V133.828ZM385.882 130.328H384.51L387.52 138H389.004L392.014 130.328H390.656L388.276 136.824L385.882 130.328ZM393.267 130.328V138H394.541V130.328H393.267ZM393.925 129.082C394.387 129.082 394.765 128.704 394.765 128.214C394.765 127.724 394.387 127.346 393.925 127.346C393.435 127.346 393.057 127.724 393.057 128.214C393.057 128.704 393.435 129.082 393.925 129.082ZM396.713 127.64V138H397.987V127.64H396.713ZM403.891 130.328V138H405.165V130.328H403.891ZM404.549 129.082C405.011 129.082 405.389 128.704 405.389 128.214C405.389 127.724 405.011 127.346 404.549 127.346C404.059 127.346 403.681 127.724 403.681 128.214C403.681 128.704 404.059 129.082 404.549 129.082ZM410.052 138.126C411.746 138.126 412.852 137.174 412.852 135.914C412.796 133.17 408.344 134.164 408.344 132.344C408.344 131.728 408.904 131.28 409.842 131.28C410.864 131.28 411.452 131.84 411.508 132.61H412.782C412.698 131.112 411.578 130.202 409.884 130.202C408.176 130.202 407.07 131.168 407.07 132.344C407.07 135.2 411.606 134.206 411.606 135.914C411.606 136.544 411.046 137.048 410.038 137.048C408.96 137.048 408.302 136.488 408.232 135.746H406.916C407 137.146 408.26 138.126 410.052 138.126ZM417.907 134.136C417.907 136.516 419.489 138.126 421.533 138.126C422.947 138.126 423.941 137.398 424.403 136.572V138H425.691V130.328H424.403V131.728C423.955 130.93 422.975 130.202 421.547 130.202C419.489 130.202 417.907 131.742 417.907 134.136ZM424.403 134.15C424.403 135.956 423.199 137.006 421.799 137.006C420.399 137.006 419.209 135.942 419.209 134.136C419.209 132.33 420.399 131.308 421.799 131.308C423.199 131.308 424.403 132.372 424.403 134.15ZM433.458 133.66V138H434.718V133.478C434.718 131.28 433.36 130.188 431.582 130.188C430.546 130.188 429.622 130.622 429.118 131.42V130.328H427.844V138H429.118V133.758C429.118 132.106 430.014 131.294 431.316 131.294C432.604 131.294 433.458 132.092 433.458 133.66ZM447.083 138H448.427L444.913 128.298H443.443L439.915 138H441.259L442.043 135.83H446.299L447.083 138ZM445.935 134.794H442.407L444.171 129.866L445.935 134.794ZM449.965 128.242V138H451.239V128.242H449.965ZM458.416 131.756V127.64H457.142V138H458.416V136.586C458.892 137.426 459.886 138.126 461.286 138.126C463.344 138.126 464.926 136.516 464.926 134.136C464.926 131.742 463.358 130.202 461.286 130.202C459.928 130.202 458.906 130.902 458.416 131.756ZM463.624 134.136C463.624 135.942 462.434 137.006 461.02 137.006C459.634 137.006 458.416 135.956 458.416 134.15C458.416 132.372 459.634 131.308 461.02 131.308C462.434 131.308 463.624 132.33 463.624 134.136ZM469.949 138.126C472.133 138.126 473.883 136.586 473.883 134.15C473.883 131.728 472.189 130.202 470.005 130.202C467.835 130.202 466.127 131.728 466.127 134.15C466.127 136.586 467.779 138.126 469.949 138.126ZM469.949 137.006C468.619 137.006 467.429 136.096 467.429 134.15C467.429 132.218 468.647 131.308 469.991 131.308C471.307 131.308 472.581 132.218 472.581 134.15C472.581 136.096 471.279 137.006 469.949 137.006ZM475.838 128.396V130.328H474.844V131.378H475.838V135.9C475.838 137.44 476.608 138 477.966 138H479.114V136.922H478.176C477.392 136.922 477.112 136.656 477.112 135.9V131.378H479.114V130.328H477.112V128.396H475.838ZM484.671 128.396V130.328H483.677V131.378H484.671V135.9C484.671 137.44 485.441 138 486.799 138H487.947V136.922H487.008C486.225 136.922 485.945 136.656 485.945 135.9V131.378H487.947V130.328H485.945V128.396H484.671ZM489.49 127.64V138H490.764V133.758C490.764 132.106 491.66 131.294 492.962 131.294C494.25 131.294 495.104 132.092 495.104 133.66V138H496.364V133.478C496.364 131.28 495.006 130.188 493.298 130.188C492.22 130.188 491.268 130.622 490.764 131.434V127.64H489.49ZM497.969 134.136C497.969 136.516 499.551 138.126 501.595 138.126C503.009 138.126 504.003 137.398 504.465 136.572V138H505.753V130.328H504.465V131.728C504.017 130.93 503.037 130.202 501.609 130.202C499.551 130.202 497.969 131.742 497.969 134.136ZM504.465 134.15C504.465 135.956 503.261 137.006 501.861 137.006C500.461 137.006 499.271 135.942 499.271 134.136C499.271 132.33 500.461 131.308 501.861 131.308C503.261 131.308 504.465 132.372 504.465 134.15ZM508.186 128.396V130.328H507.192V131.378H508.186V135.9C508.186 137.44 508.956 138 510.314 138H511.462V136.922H510.524C509.74 136.922 509.46 136.656 509.46 135.9V131.378H511.462V130.328H509.46V128.396H508.186ZM519.454 138.126C521.148 138.126 522.254 137.174 522.254 135.914C522.198 133.17 517.746 134.164 517.746 132.344C517.746 131.728 518.306 131.28 519.244 131.28C520.266 131.28 520.854 131.84 520.91 132.61H522.184C522.1 131.112 520.98 130.202 519.286 130.202C517.578 130.202 516.472 131.168 516.472 132.344C516.472 135.2 521.008 134.206 521.008 135.914C521.008 136.544 520.448 137.048 519.44 137.048C518.362 137.048 517.704 136.488 517.634 135.746H516.318C516.402 137.146 517.662 138.126 519.454 138.126ZM527.315 131.28C528.631 131.28 529.751 132.106 529.737 133.604H524.893C525.033 132.106 526.069 131.28 527.315 131.28ZM530.899 135.634H529.527C529.247 136.46 528.519 137.048 527.371 137.048C526.069 137.048 524.977 136.194 524.879 134.64H531.011C531.039 134.374 531.053 134.15 531.053 133.87C531.053 131.77 529.597 130.202 527.371 130.202C525.131 130.202 523.577 131.728 523.577 134.15C523.577 136.586 525.187 138.126 527.371 138.126C529.275 138.126 530.507 137.034 530.899 135.634ZM535.996 131.28C537.312 131.28 538.432 132.106 538.418 133.604H533.574C533.714 132.106 534.75 131.28 535.996 131.28ZM539.58 135.634H538.208C537.928 136.46 537.2 137.048 536.052 137.048C534.75 137.048 533.658 136.194 533.56 134.64H539.692C539.72 134.374 539.734 134.15 539.734 133.87C539.734 131.77 538.278 130.202 536.052 130.202C533.812 130.202 532.258 131.728 532.258 134.15C532.258 136.586 533.868 138.126 536.052 138.126C537.956 138.126 539.188 137.034 539.58 135.634ZM541.416 127.64V138H542.69V134.612L545.7 138H547.436L543.81 134.15L547.422 130.328H545.644L542.69 133.73V127.64H541.416ZM551.337 138.126C553.031 138.126 554.137 137.174 554.137 135.914C554.081 133.17 549.629 134.164 549.629 132.344C549.629 131.728 550.189 131.28 551.127 131.28C552.149 131.28 552.737 131.84 552.793 132.61H554.067C553.983 131.112 552.863 130.202 551.169 130.202C549.461 130.202 548.355 131.168 548.355 132.344C548.355 135.2 552.891 134.206 552.891 135.914C552.891 136.544 552.331 137.048 551.323 137.048C550.245 137.048 549.587 136.488 549.517 135.746H548.201C548.285 137.146 549.545 138.126 551.337 138.126ZM559.948 128.396V130.328H558.954V131.378H559.948V135.9C559.948 137.44 560.718 138 562.076 138H563.224V136.922H562.286C561.502 136.922 561.222 136.656 561.222 135.9V131.378H563.224V130.328H561.222V128.396H559.948ZM568.113 138.126C570.297 138.126 572.047 136.586 572.047 134.15C572.047 131.728 570.353 130.202 568.169 130.202C565.999 130.202 564.291 131.728 564.291 134.15C564.291 136.586 565.943 138.126 568.113 138.126ZM568.113 137.006C566.783 137.006 565.593 136.096 565.593 134.15C565.593 132.218 566.811 131.308 568.155 131.308C569.471 131.308 570.745 132.218 570.745 134.15C570.745 136.096 569.443 137.006 568.113 137.006ZM578.729 133.828C578.729 132.05 579.653 131.504 580.871 131.504H581.207V130.188C579.989 130.188 579.163 130.72 578.729 131.574V130.328H577.455V138H578.729V133.828ZM585.94 131.28C587.256 131.28 588.376 132.106 588.362 133.604H583.518C583.658 132.106 584.694 131.28 585.94 131.28ZM589.524 135.634H588.152C587.872 136.46 587.144 137.048 585.996 137.048C584.694 137.048 583.602 136.194 583.504 134.64H589.636C589.664 134.374 589.678 134.15 589.678 133.87C589.678 131.77 588.222 130.202 585.996 130.202C583.756 130.202 582.202 131.728 582.202 134.15C582.202 136.586 583.812 138.126 585.996 138.126C587.9 138.126 589.132 137.034 589.524 135.634ZM594.075 138.126C595.769 138.126 596.875 137.174 596.875 135.914C596.819 133.17 592.367 134.164 592.367 132.344C592.367 131.728 592.927 131.28 593.865 131.28C594.887 131.28 595.475 131.84 595.531 132.61H596.805C596.721 131.112 595.601 130.202 593.907 130.202C592.199 130.202 591.093 131.168 591.093 132.344C591.093 135.2 595.629 134.206 595.629 135.914C595.629 136.544 595.069 137.048 594.061 137.048C592.983 137.048 592.325 136.488 592.255 135.746H590.939C591.023 137.146 592.283 138.126 594.075 138.126ZM599.948 131.742V130.328H598.674V141.64H599.948V136.586C600.424 137.37 601.418 138.126 602.818 138.126C604.876 138.126 606.458 136.516 606.458 134.136C606.458 131.742 604.876 130.202 602.818 130.202C601.418 130.202 600.41 130.93 599.948 131.742ZM605.156 134.136C605.156 135.942 603.966 137.006 602.552 137.006C601.166 137.006 599.948 135.956 599.948 134.15C599.948 132.372 601.166 131.308 602.552 131.308C603.966 131.308 605.156 132.33 605.156 134.136ZM611.481 138.126C613.665 138.126 615.415 136.586 615.415 134.15C615.415 131.728 613.721 130.202 611.537 130.202C609.367 130.202 607.659 131.728 607.659 134.15C607.659 136.586 609.311 138.126 611.481 138.126ZM611.481 137.006C610.151 137.006 608.961 136.096 608.961 134.15C608.961 132.218 610.179 131.308 611.523 131.308C612.839 131.308 614.113 132.218 614.113 134.15C614.113 136.096 612.811 137.006 611.481 137.006ZM622.704 133.66V138H623.964V133.478C623.964 131.28 622.606 130.188 620.828 130.188C619.792 130.188 618.868 130.622 618.364 131.42V130.328H617.09V138H618.364V133.758C618.364 132.106 619.26 131.294 620.562 131.294C621.85 131.294 622.704 132.092 622.704 133.66ZM625.569 134.136C625.569 136.516 627.151 138.126 629.209 138.126C630.609 138.126 631.603 137.412 632.065 136.558V138H633.353V127.64H632.065V131.7C631.533 130.818 630.427 130.202 629.223 130.202C627.151 130.202 625.569 131.742 625.569 134.136ZM632.065 134.15C632.065 135.956 630.861 137.006 629.461 137.006C628.061 137.006 626.871 135.942 626.871 134.136C626.871 132.33 628.061 131.308 629.461 131.308C630.861 131.308 632.065 132.372 632.065 134.15ZM639.518 128.396V130.328H638.524V131.378H639.518V135.9C639.518 137.44 640.288 138 641.646 138H642.794V136.922H641.856C641.072 136.922 640.792 136.656 640.792 135.9V131.378H642.794V130.328H640.792V128.396H639.518ZM647.684 138.126C649.868 138.126 651.618 136.586 651.618 134.15C651.618 131.728 649.924 130.202 647.74 130.202C645.57 130.202 643.862 131.728 643.862 134.15C643.862 136.586 645.514 138.126 647.684 138.126ZM647.684 137.006C646.354 137.006 645.164 136.096 645.164 134.15C645.164 132.218 646.382 131.308 647.726 131.308C649.042 131.308 650.316 132.218 650.316 134.15C650.316 136.096 649.014 137.006 647.684 137.006ZM362.37 148.328L359.99 154.544L357.582 148.328H356.168L359.262 155.916L357.75 159.612H359.066L363.686 148.328H362.37ZM368.313 156.126C370.497 156.126 372.247 154.586 372.247 152.15C372.247 149.728 370.553 148.202 368.369 148.202C366.199 148.202 364.491 149.728 364.491 152.15C364.491 154.586 366.143 156.126 368.313 156.126ZM368.313 155.006C366.983 155.006 365.793 154.096 365.793 152.15C365.793 150.218 367.011 149.308 368.355 149.308C369.671 149.308 370.945 150.218 370.945 152.15C370.945 154.096 369.643 155.006 368.313 155.006ZM380.726 156V148.328H379.452V152.542C379.452 154.194 378.57 155.006 377.254 155.006C375.966 155.006 375.112 154.208 375.112 152.654V148.328H373.852V152.822C373.852 155.02 375.238 156.112 377.002 156.112C378.024 156.112 378.962 155.664 379.452 154.866V156H380.726ZM384.151 151.828C384.151 150.05 385.075 149.504 386.293 149.504H386.629V148.188C385.411 148.188 384.585 148.72 384.151 149.574V148.328H382.877V156H384.151V151.828ZM391.356 152.136C391.356 154.516 392.938 156.126 394.968 156.126C396.396 156.126 397.418 155.37 397.852 154.586V159.64H399.14V148.328H397.852V149.728C397.418 148.93 396.41 148.202 395.01 148.202C392.938 148.202 391.356 149.742 391.356 152.136ZM397.852 152.15C397.852 153.956 396.648 155.006 395.248 155.006C393.848 155.006 392.658 153.942 392.658 152.136C392.658 150.33 393.848 149.308 395.248 149.308C396.648 149.308 397.852 150.372 397.852 152.15ZM408.097 156V148.328H406.823V152.542C406.823 154.194 405.941 155.006 404.625 155.006C403.337 155.006 402.483 154.208 402.483 152.654V148.328H401.223V152.822C401.223 155.02 402.609 156.112 404.373 156.112C405.395 156.112 406.333 155.664 406.823 154.866V156H408.097ZM413.51 149.28C414.826 149.28 415.946 150.106 415.932 151.604H411.088C411.228 150.106 412.264 149.28 413.51 149.28ZM417.094 153.634H415.722C415.442 154.46 414.714 155.048 413.566 155.048C412.264 155.048 411.172 154.194 411.074 152.64H417.206C417.234 152.374 417.248 152.15 417.248 151.87C417.248 149.77 415.792 148.202 413.566 148.202C411.326 148.202 409.772 149.728 409.772 152.15C409.772 154.586 411.382 156.126 413.566 156.126C415.47 156.126 416.702 155.034 417.094 153.634ZM420.204 151.828C420.204 150.05 421.128 149.504 422.346 149.504H422.682V148.188C421.464 148.188 420.638 148.72 420.204 149.574V148.328H418.93V156H420.204V151.828ZM424.152 148.328V156H425.426V148.328H424.152ZM424.81 147.082C425.272 147.082 425.65 146.704 425.65 146.214C425.65 145.724 425.272 145.346 424.81 145.346C424.32 145.346 423.942 145.724 423.942 146.214C423.942 146.704 424.32 147.082 424.81 147.082ZM430.86 149.28C432.176 149.28 433.296 150.106 433.282 151.604H428.438C428.578 150.106 429.614 149.28 430.86 149.28ZM434.444 153.634H433.072C432.792 154.46 432.064 155.048 430.916 155.048C429.614 155.048 428.522 154.194 428.424 152.64H434.556C434.584 152.374 434.598 152.15 434.598 151.87C434.598 149.77 433.142 148.202 430.916 148.202C428.676 148.202 427.122 149.728 427.122 152.15C427.122 154.586 428.732 156.126 430.916 156.126C432.82 156.126 434.052 155.034 434.444 153.634ZM438.995 156.126C440.689 156.126 441.795 155.174 441.795 153.914C441.739 151.17 437.287 152.164 437.287 150.344C437.287 149.728 437.847 149.28 438.785 149.28C439.807 149.28 440.395 149.84 440.451 150.61H441.725C441.641 149.112 440.521 148.202 438.827 148.202C437.119 148.202 436.013 149.168 436.013 150.344C436.013 153.2 440.549 152.206 440.549 153.914C440.549 154.544 439.989 155.048 438.981 155.048C437.903 155.048 437.245 154.488 437.175 153.746H435.859C435.943 155.146 437.203 156.126 438.995 156.126ZM446.85 152.136C446.85 154.516 448.432 156.126 450.476 156.126C451.89 156.126 452.884 155.398 453.346 154.572V156H454.634V148.328H453.346V149.728C452.898 148.93 451.918 148.202 450.49 148.202C448.432 148.202 446.85 149.742 446.85 152.136ZM453.346 152.15C453.346 153.956 452.142 155.006 450.742 155.006C449.342 155.006 448.152 153.942 448.152 152.136C448.152 150.33 449.342 149.308 450.742 149.308C452.142 149.308 453.346 150.372 453.346 152.15ZM458.061 149.756V145.64H456.787V156H458.061V154.586C458.537 155.426 459.531 156.126 460.931 156.126C462.989 156.126 464.571 154.516 464.571 152.136C464.571 149.742 463.003 148.202 460.931 148.202C459.573 148.202 458.551 148.902 458.061 149.756ZM463.269 152.136C463.269 153.942 462.079 155.006 460.665 155.006C459.279 155.006 458.061 153.956 458.061 152.15C458.061 150.372 459.279 149.308 460.665 149.308C462.079 149.308 463.269 150.33 463.269 152.136ZM469.594 156.126C471.778 156.126 473.528 154.586 473.528 152.15C473.528 149.728 471.834 148.202 469.65 148.202C467.48 148.202 465.772 149.728 465.772 152.15C465.772 154.586 467.424 156.126 469.594 156.126ZM469.594 155.006C468.264 155.006 467.074 154.096 467.074 152.15C467.074 150.218 468.292 149.308 469.636 149.308C470.952 149.308 472.226 150.218 472.226 152.15C472.226 154.096 470.924 155.006 469.594 155.006ZM482.007 156V148.328H480.733V152.542C480.733 154.194 479.851 155.006 478.535 155.006C477.247 155.006 476.393 154.208 476.393 152.654V148.328H475.133V152.822C475.133 155.02 476.519 156.112 478.283 156.112C479.305 156.112 480.243 155.664 480.733 154.866V156H482.007ZM484.438 146.396V148.328H483.444V149.378H484.438V153.9C484.438 155.44 485.208 156 486.566 156H487.714V154.922H486.776C485.992 154.922 485.712 154.656 485.712 153.9V149.378H487.714V148.328H485.712V146.396H484.438ZM494.264 149.742V148.328H492.99V159.64H494.264V154.586C494.74 155.37 495.734 156.126 497.134 156.126C499.192 156.126 500.774 154.516 500.774 152.136C500.774 149.742 499.192 148.202 497.134 148.202C495.734 148.202 494.726 148.93 494.264 149.742ZM499.472 152.136C499.472 153.942 498.282 155.006 496.868 155.006C495.482 155.006 494.264 153.956 494.264 152.15C494.264 150.372 495.482 149.308 496.868 149.308C498.282 149.308 499.472 150.33 499.472 152.136ZM503.725 151.828C503.725 150.05 504.649 149.504 505.867 149.504H506.203V148.188C504.985 148.188 504.159 148.72 503.725 149.574V148.328H502.451V156H503.725V151.828ZM511.02 156.126C513.204 156.126 514.954 154.586 514.954 152.15C514.954 149.728 513.26 148.202 511.076 148.202C508.906 148.202 507.198 149.728 507.198 152.15C507.198 154.586 508.85 156.126 511.02 156.126ZM511.02 155.006C509.69 155.006 508.5 154.096 508.5 152.15C508.5 150.218 509.718 149.308 511.062 149.308C512.378 149.308 513.652 150.218 513.652 152.15C513.652 154.096 512.35 155.006 511.02 155.006ZM519.793 148.202C517.735 148.202 516.153 149.742 516.153 152.136C516.153 154.516 517.735 156.126 519.793 156.126C521.193 156.126 522.187 155.384 522.649 154.558V156.168C522.649 157.806 521.627 158.674 520.269 158.674C519.009 158.674 518.099 158.044 517.819 157.12H516.559C516.811 158.758 518.253 159.78 520.269 159.78C522.523 159.78 523.937 158.282 523.937 156.168V148.328H522.649V149.728C522.201 148.902 521.193 148.202 519.793 148.202ZM522.649 152.15C522.649 153.956 521.445 155.006 520.045 155.006C518.645 155.006 517.455 153.942 517.455 152.136C517.455 150.33 518.645 149.308 520.045 149.308C521.445 149.308 522.649 150.372 522.649 152.15ZM527.364 151.828C527.364 150.05 528.288 149.504 529.506 149.504H529.842V148.188C528.624 148.188 527.798 148.72 527.364 149.574V148.328H526.09V156H527.364V151.828ZM530.836 152.136C530.836 154.516 532.418 156.126 534.462 156.126C535.876 156.126 536.87 155.398 537.332 154.572V156H538.62V148.328H537.332V149.728C536.884 148.93 535.904 148.202 534.476 148.202C532.418 148.202 530.836 149.742 530.836 152.136ZM537.332 152.15C537.332 153.956 536.128 155.006 534.728 155.006C533.328 155.006 532.138 153.942 532.138 152.136C532.138 150.33 533.328 149.308 534.728 149.308C536.128 149.308 537.332 150.372 537.332 152.15ZM551.847 151.66V156H553.107V151.478C553.107 149.28 551.749 148.188 549.999 148.188C548.823 148.188 547.731 148.79 547.283 149.896C546.779 148.748 545.729 148.188 544.469 148.188C543.461 148.188 542.551 148.622 542.047 149.434V148.328H540.773V156H542.047V151.772C542.047 150.12 542.929 149.294 544.217 149.294C545.477 149.294 546.317 150.092 546.317 151.66V156H547.577V151.772C547.577 150.12 548.459 149.294 549.747 149.294C551.007 149.294 551.847 150.092 551.847 151.66ZM566.271 151.66V156H567.531V151.478C567.531 149.28 566.173 148.188 564.423 148.188C563.247 148.188 562.155 148.79 561.707 149.896C561.203 148.748 560.153 148.188 558.893 148.188C557.885 148.188 556.975 148.622 556.471 149.434V148.328H555.197V156H556.471V151.772C556.471 150.12 557.353 149.294 558.641 149.294C559.901 149.294 560.741 150.092 560.741 151.66V156H562.001V151.772C562.001 150.12 562.883 149.294 564.171 149.294C565.431 149.294 566.271 150.092 566.271 151.66ZM569.621 148.328V156H570.895V148.328H569.621ZM570.279 147.082C570.741 147.082 571.119 146.704 571.119 146.214C571.119 145.724 570.741 145.346 570.279 145.346C569.789 145.346 569.411 145.724 569.411 146.214C569.411 146.704 569.789 147.082 570.279 147.082ZM578.68 151.66V156H579.94V151.478C579.94 149.28 578.582 148.188 576.804 148.188C575.768 148.188 574.844 148.622 574.34 149.42V148.328H573.066V156H574.34V151.758C574.34 150.106 575.236 149.294 576.538 149.294C577.826 149.294 578.68 150.092 578.68 151.66ZM585.185 148.202C583.127 148.202 581.545 149.742 581.545 152.136C581.545 154.516 583.127 156.126 585.185 156.126C586.585 156.126 587.579 155.384 588.041 154.558V156.168C588.041 157.806 587.019 158.674 585.661 158.674C584.401 158.674 583.491 158.044 583.211 157.12H581.951C582.203 158.758 583.645 159.78 585.661 159.78C587.915 159.78 589.329 158.282 589.329 156.168V148.328H588.041V149.728C587.593 148.902 586.585 148.202 585.185 148.202ZM588.041 152.15C588.041 153.956 586.837 155.006 585.437 155.006C584.037 155.006 582.847 153.942 582.847 152.136C582.847 150.33 584.037 149.308 585.437 149.308C586.837 149.308 588.041 150.372 588.041 152.15ZM591.888 156.084C592.35 156.084 592.728 155.706 592.728 155.216C592.728 154.726 592.35 154.348 591.888 154.348C591.398 154.348 591.02 154.726 591.02 155.216C591.02 155.706 591.398 156.084 591.888 156.084Z" fill="#6D6B71"/>
<path d="M310.286 128.833C311.738 128.833 313.177 129.119 314.519 129.675C315.861 130.231 317.081 131.046 318.108 132.073C319.135 133.101 319.95 134.32 320.506 135.662C321.062 137.005 321.348 138.443 321.348 139.896V144.341C321.349 146.998 320.775 149.625 319.666 152.04C318.557 154.455 316.938 156.602 314.922 158.333C307.227 164.941 296.209 168.167 282 168.167C267.791 168.167 256.787 164.941 249.107 158.333C247.094 156.603 245.478 154.458 244.37 152.046C243.261 149.633 242.687 147.01 242.686 144.355V139.891C242.688 136.958 243.854 134.145 245.928 132.072C248.003 129.998 250.816 128.833 253.749 128.833H310.29H310.286ZM281.508 69.8628L282 69.8333C282.891 69.8334 283.752 70.1561 284.424 70.7418C285.095 71.3275 285.532 72.1365 285.653 73.0193L285.687 73.5208L285.683 77.2034H302.891C305.825 77.2034 308.639 78.3689 310.713 80.4436C312.788 82.5182 313.953 85.332 313.953 88.2659V110.416C313.953 113.349 312.788 116.163 310.713 118.238C308.639 120.312 305.825 121.478 302.891 121.478H261.099C258.165 121.478 255.351 120.312 253.277 118.238C251.202 116.163 250.037 113.349 250.037 110.416V88.2708C250.037 86.8177 250.323 85.3788 250.879 84.0363C251.436 82.6938 252.251 81.474 253.279 80.4467C254.306 79.4194 255.526 78.6047 256.869 78.049C258.212 77.4934 259.651 77.2077 261.104 77.2083L278.312 77.2034V73.5208C278.313 72.629 278.636 71.7675 279.223 71.0958C279.809 70.4241 280.62 69.9879 281.503 69.8678L282 69.8333L281.498 69.8678L281.508 69.8628ZM270.933 91.9583C270.105 91.9252 269.28 92.0596 268.506 92.3533C267.732 92.6469 267.026 93.094 266.429 93.6675C265.832 94.241 265.357 94.9291 265.033 95.6907C264.708 96.4522 264.541 97.2715 264.541 98.0993C264.541 98.927 264.708 99.7463 265.033 100.508C265.357 101.269 265.832 101.958 266.429 102.531C267.026 103.105 267.732 103.552 268.506 103.845C269.28 104.139 270.105 104.273 270.933 104.24C272.519 104.177 274.019 103.502 275.119 102.357C276.218 101.213 276.833 99.6867 276.833 98.0993C276.833 96.5118 276.218 94.986 275.119 93.8413C274.019 92.6966 272.519 92.0218 270.933 91.9583ZM293.023 91.9583C292.196 91.9252 291.371 92.0596 290.597 92.3533C289.823 92.6469 289.116 93.094 288.519 93.6675C287.922 94.241 287.448 94.9291 287.123 95.6907C286.799 96.4522 286.632 97.2715 286.632 98.0993C286.632 98.927 286.799 99.7463 287.123 100.508C287.448 101.269 287.922 101.958 288.519 102.531C289.116 103.105 289.823 103.552 290.597 103.845C291.371 104.139 292.196 104.273 293.023 104.24C294.609 104.177 296.109 103.502 297.209 102.357C298.309 101.213 298.923 99.6867 298.923 98.0993C298.923 96.5118 298.309 94.986 297.209 93.8413C296.109 92.6966 294.609 92.0218 293.023 91.9583Z" fill="#8758FF"/>
<g opacity="0.2">
<path d="M378.17 173C383.267 173 388.314 174.004 393.023 175.954C397.732 177.905 402.011 180.764 405.615 184.368C409.219 187.972 412.078 192.251 414.028 196.96C415.979 201.669 416.983 206.716 416.983 211.812V227.406C416.985 236.731 414.972 245.946 411.08 254.419C407.189 262.893 401.511 270.425 394.437 276.5C367.441 299.684 328.783 311 278.931 311C229.078 311 190.473 299.684 163.528 276.5C156.464 270.429 150.794 262.905 146.906 254.441C143.017 245.977 141.003 236.773 141 227.458V211.795C141.005 201.505 145.096 191.637 152.374 184.362C159.652 177.087 169.522 173 179.812 173H378.188H378.17ZM277.206 -33.8965L278.931 -34C282.057 -33.9999 285.078 -32.8677 287.434 -30.8128C289.79 -28.7579 291.323 -25.9193 291.748 -22.822L291.868 -21.0625L291.851 -8.14225H352.226C362.52 -8.14225 372.392 -4.05309 379.671 3.22566C386.95 10.5044 391.039 20.3765 391.039 30.6702V108.381C391.039 118.675 386.95 128.547 379.671 135.826C372.392 143.105 362.52 147.194 352.226 147.194H205.601C195.308 147.194 185.435 143.105 178.157 135.826C170.878 128.547 166.789 118.675 166.789 108.381V30.6875C166.789 25.5891 167.793 20.5407 169.745 15.8306C171.696 11.1205 174.557 6.84111 178.163 3.23681C181.769 -0.367485 186.049 -3.22603 190.76 -5.17553C195.471 -7.12502 200.52 -8.12727 205.618 -8.125L265.993 -8.14225V-21.0625C265.994 -24.1914 267.129 -27.2141 269.187 -29.5706C271.246 -31.9272 274.088 -33.4579 277.189 -33.8793L278.931 -34L277.171 -33.8793L277.206 -33.8965ZM240.101 43.625C237.199 43.5088 234.304 43.9801 231.589 45.0105C228.873 46.0409 226.394 47.6092 224.3 49.6214C222.206 51.6335 220.539 54.0479 219.401 56.7198C218.263 59.3917 217.676 62.266 217.676 65.1702C217.676 68.0745 218.263 70.9488 219.401 73.6207C220.539 76.2926 222.206 78.707 224.3 80.7191C226.394 82.7312 228.873 84.2995 231.589 85.3299C234.304 86.3604 237.199 86.8316 240.101 86.7155C245.666 86.4928 250.929 84.1254 254.788 80.1092C258.646 76.0931 260.801 70.7397 260.801 65.1702C260.801 59.6008 258.646 54.2474 254.788 50.2312C250.929 46.2151 245.666 43.8477 240.101 43.625ZM317.605 43.625C314.704 43.5088 311.808 43.9801 309.093 45.0105C306.378 46.0409 303.898 47.6092 301.804 49.6214C299.71 51.6335 298.044 54.0479 296.906 56.7198C295.767 59.3917 295.181 62.266 295.181 65.1702C295.181 68.0745 295.767 70.9488 296.906 73.6207C298.044 76.2926 299.71 78.707 301.804 80.7191C303.898 82.7312 306.378 84.2995 309.093 85.3299C311.808 86.3604 314.704 86.8316 317.605 86.7155C323.17 86.4928 328.433 84.1254 332.292 80.1092C336.151 76.0931 338.306 70.7397 338.306 65.1702C338.306 59.6008 336.151 54.2474 332.292 50.2312C328.433 46.2151 323.17 43.8477 317.605 43.625Z" fill="#8758FF"/>
</g>
</g>
<defs>
<clipPath id="clip0_1_2">
<rect width="817" height="221" fill="white"/>
</clipPath>
</defs>
</svg>
