<svg width="3940" height="1011" viewBox="0 0 3940 1011" fill="none" xmlns="http://www.w3.org/2000/svg">
<rect width="3940" height="1011" fill="#1D1F2A"/>
<path d="M704.059 416.158V457.256H784.468V510.505H704.059V555.892H795.19V612H634.013V360.05H795.19V416.158H704.059ZM1063.17 612H993.123L899.848 471.194V612H829.802V360.05H899.848L993.123 502.643V360.05H1063.17V612ZM1263.89 442.961C1259.84 436.29 1254.24 431.168 1247.09 427.594C1240.18 424.02 1231.96 422.233 1222.43 422.233C1204.8 422.233 1190.86 427.951 1180.62 439.387C1170.61 450.823 1165.61 466.191 1165.61 485.489C1165.61 507.17 1170.97 523.728 1181.69 535.164C1192.65 546.362 1208.5 551.961 1229.22 551.961C1253.76 551.961 1271.27 540.882 1281.76 518.725H1211.35V468.335H1342.15V536.236C1336.67 549.578 1328.57 562.086 1317.85 573.761C1307.37 585.435 1294.03 595.084 1277.83 602.708C1261.63 610.094 1243.16 613.787 1222.43 613.787C1197.18 613.787 1174.78 608.426 1155.25 597.705C1135.95 586.745 1120.94 571.617 1110.22 552.318C1099.73 532.782 1094.49 510.505 1094.49 485.489C1094.49 460.711 1099.73 438.673 1110.22 419.374C1120.94 399.838 1135.95 384.709 1155.25 373.988C1174.54 363.028 1196.82 357.548 1222.08 357.548C1253.76 357.548 1279.97 365.172 1300.7 380.42C1321.43 395.668 1334.29 416.515 1339.29 442.961H1263.89ZM1443.59 360.05V612H1373.54V360.05H1443.59ZM1716.85 612H1646.8L1553.52 471.194V612H1483.48V360.05H1553.52L1646.8 502.643V360.05H1716.85V612ZM1826.79 416.158V457.256H1907.2V510.505H1826.79V555.892H1917.92V612H1756.75V360.05H1917.92V416.158H1826.79Z" fill="#BBC4DB"/>
<path d="M2359.02 362.551L2289.33 612H2230.36L2183.55 434.384L2134.58 612L2075.98 612.357L2008.79 362.551H2062.39L2106.35 556.249L2157.1 362.551H2212.85L2260.74 555.177L2305.05 362.551H2359.02ZM2544.64 564.469H2445.29L2428.85 612H2376.32L2466.02 362.194H2524.27L2613.97 612H2561.08L2544.64 564.469ZM2531.06 524.443L2494.97 420.089L2458.87 524.443H2531.06ZM2776.16 612L2721.12 514.794H2697.54V612H2647.5V362.551H2741.14C2760.43 362.551 2776.87 366.006 2790.45 372.915C2804.03 379.586 2814.16 388.759 2820.83 400.433C2827.74 411.869 2831.19 424.735 2831.19 439.03C2831.19 455.469 2826.43 470.36 2816.9 483.702C2807.37 496.806 2793.19 505.859 2774.37 510.863L2834.05 612H2776.16ZM2697.54 477.269H2739.35C2752.93 477.269 2763.05 474.053 2769.73 467.62C2776.4 460.949 2779.73 451.776 2779.73 440.102C2779.73 428.666 2776.4 419.851 2769.73 413.656C2763.05 407.224 2752.93 404.007 2739.35 404.007H2697.54V477.269ZM3100.52 362.551L3009.03 612H2948.28L2856.79 362.551H2910.4L2979.01 560.895L3047.27 362.551H3100.52ZM3180.55 362.551V612H3130.52V362.551H3180.55ZM3280.02 572.331H3362.21V612H3229.98V362.551H3280.02V572.331Z" fill="#87C5FF"/>
</svg>
