<svg width="3940" height="1011" viewBox="0 0 3940 1011" fill="none" xmlns="http://www.w3.org/2000/svg">
<rect width="3940" height="1011" fill="#1D1F2A"/>
<path d="M371.269 429.083V479.83H453.108V527.004H371.269V582.039H463.829V631H310.157V380.122H463.829V429.083H371.269ZM727.936 631H666.824L564.615 476.256V631H503.503V380.122H564.615L666.824 535.581V380.122H727.936V631ZM938.771 459.459C934.244 451.121 927.692 444.807 919.115 440.519C910.776 435.992 900.889 433.728 889.453 433.728C869.678 433.728 853.834 440.28 841.922 453.384C830.009 466.25 824.053 483.523 824.053 505.204C824.053 528.314 830.247 546.421 842.636 559.525C855.264 572.39 872.537 578.823 894.456 578.823C909.466 578.823 922.093 575.011 932.338 567.387C942.821 559.763 950.445 548.804 955.21 534.508H877.659V489.479H1010.6V546.302C1006.08 561.55 998.333 575.726 987.374 588.83C976.653 601.933 962.953 612.536 946.276 620.636C929.598 628.737 910.776 632.787 889.81 632.787C865.032 632.787 842.875 627.426 823.338 616.705C804.04 605.745 788.911 590.617 777.951 571.318C767.23 552.02 761.869 529.982 761.869 505.204C761.869 480.426 767.23 458.387 777.951 439.089C788.911 419.552 804.04 404.424 823.338 393.702C842.636 382.743 864.675 377.263 889.453 377.263C919.472 377.263 944.727 384.53 965.216 399.063C985.944 413.596 999.644 433.728 1006.31 459.459H938.771ZM1105.56 380.122V631H1044.45V380.122H1105.56ZM1374.28 631H1313.17L1210.96 476.256V631H1149.85V380.122H1210.96L1313.17 535.581V380.122H1374.28V631ZM1479.69 429.083V479.83H1561.53V527.004H1479.69V582.039H1572.25V631H1418.58V380.122H1572.25V429.083H1479.69Z" fill="#BBC4DB"/>
<path d="M2032.89 380.122L1967.49 631H1893.51L1853.48 465.892L1812.03 631H1738.05L1674.44 380.122H1739.84L1775.93 562.741L1820.6 380.122H1887.79L1930.68 562.741L1967.13 380.122H2032.89ZM2219.71 586.685H2126.07L2111.06 631H2047.09L2137.87 380.122H2208.63L2299.4 631H2234.72L2219.71 586.685ZM2203.98 539.512L2172.89 447.666L2142.16 539.512H2203.98ZM2454.97 631L2402.79 536.295H2388.14V631H2327.03V380.122H2429.6C2449.37 380.122 2466.17 383.577 2479.99 390.486C2494.04 397.395 2504.53 406.925 2511.43 419.076C2518.34 430.989 2521.8 444.331 2521.8 459.102C2521.8 475.78 2517.03 490.67 2507.5 503.774C2498.21 516.878 2484.39 526.17 2466.05 531.649L2523.94 631H2454.97ZM2388.14 493.053H2426.02C2437.22 493.053 2445.56 490.313 2451.04 484.833C2456.76 479.353 2459.62 471.61 2459.62 461.604C2459.62 452.074 2456.76 444.569 2451.04 439.089C2445.56 433.609 2437.22 430.869 2426.02 430.869H2388.14V493.053ZM2795.67 380.122L2706.68 631H2630.21L2541.22 380.122H2606.26L2668.45 569.531L2730.99 380.122H2795.67ZM2882.32 380.122V631H2821.21V380.122H2882.32ZM2987.72 583.826H3067.77V631H2926.61V380.122H2987.72V583.826Z" fill="#87C5FF"/>
<g clip-path="url(#clip0_248_241)">
<path d="M3320.8 287.296C3299.66 292.052 3278.67 298.621 3258.95 308.524C3259.3 325.523 3260.59 342.489 3262.8 359.347C3255.18 364.262 3247.17 368.482 3240.07 374.224C3232.82 379.734 3225.42 385.099 3218.84 391.595C3205.55 382.82 3191.75 374.827 3177.53 367.655C3162.12 384.2 3147.77 402.093 3135.99 422.103C3144.82 436.458 3154.11 449.812 3164.09 462.587H3164.32V585.46C3164.55 585.448 3164.78 585.472 3165 585.532L3240.37 592.782C3242.28 592.967 3244.07 593.83 3245.4 595.216C3246.73 596.602 3247.52 598.419 3247.62 600.337L3249.96 633.571L3315.66 638.254L3320.19 607.587C3320.48 605.663 3321.44 603.903 3322.91 602.628C3324.38 601.354 3326.25 600.649 3328.2 600.641H3407.72C3409.66 600.649 3411.54 601.354 3413.01 602.628C3414.48 603.903 3415.44 605.663 3415.72 607.587L3420.26 638.254L3485.96 633.571L3488.29 600.337C3488.4 598.408 3489.2 596.582 3490.55 595.194C3491.89 593.807 3493.69 592.95 3495.62 592.782L3570.91 585.532C3571.15 585.532 3571.36 585.46 3571.6 585.46V462.587H3571.9C3582.01 449.641 3591.36 436.124 3599.91 422.103C3588.21 402.093 3573.78 384.185 3558.37 367.655C3544.16 374.846 3530.37 382.839 3517.06 391.595C3510.49 385.099 3503.17 379.734 3495.92 374.224C3488.74 368.482 3480.74 364.248 3473.11 359.347C3475.37 342.512 3476.5 325.895 3476.97 308.524C3457.34 298.635 3436.34 292.067 3415.11 287.296C3406.65 301.755 3399.01 316.68 3392.23 332C3384.26 330.767 3376.21 330.137 3368.15 330.115H3367.77C3359.76 330.187 3351.69 330.724 3343.68 332C3336.9 316.667 3329.24 301.741 3320.73 287.296H3320.8ZM3261.21 467.183C3273.25 467.199 3284.8 471.995 3293.31 480.519C3301.82 489.043 3306.6 500.596 3306.59 512.641C3306.59 518.601 3305.42 524.503 3303.14 530.009C3300.86 535.515 3297.51 540.519 3293.3 544.733C3289.09 548.947 3284.08 552.29 3278.58 554.571C3273.07 556.852 3267.17 558.026 3261.21 558.026C3255.25 558.026 3249.35 556.852 3243.84 554.571C3238.33 552.29 3233.33 548.947 3229.12 544.733C3224.9 540.519 3221.56 535.515 3219.28 530.009C3217 524.503 3215.82 518.601 3215.82 512.641C3215.82 500.596 3220.6 489.043 3229.11 480.519C3237.62 471.995 3249.16 467.199 3261.21 467.183V467.183ZM3474.79 467.183C3486.84 467.199 3498.38 471.995 3506.89 480.519C3515.4 489.043 3520.18 500.596 3520.18 512.641C3520.18 524.678 3515.4 536.222 3506.89 544.733C3498.37 553.244 3486.83 558.026 3474.79 558.026C3462.76 558.026 3451.21 553.244 3442.7 544.733C3434.19 536.222 3429.41 524.678 3429.41 512.641C3429.4 500.596 3434.18 489.043 3442.69 480.519C3451.2 471.995 3462.75 467.199 3474.79 467.183V467.183ZM3265.51 485.236C3261.51 485.148 3257.52 485.861 3253.79 487.334C3250.07 488.807 3246.67 491.01 3243.8 493.813C3240.94 496.616 3238.66 499.964 3237.11 503.659C3235.55 507.354 3234.75 511.322 3234.75 515.331C3234.75 519.339 3235.55 523.308 3237.11 527.003C3238.66 530.698 3240.94 534.045 3243.8 536.848C3246.67 539.652 3250.07 541.854 3253.79 543.327C3257.52 544.8 3261.51 545.513 3265.51 545.425C3269.47 545.437 3273.39 544.668 3277.05 543.163C3280.71 541.659 3284.04 539.447 3286.85 536.656C3289.65 533.864 3291.88 530.547 3293.4 526.894C3294.92 523.241 3295.71 519.324 3295.72 515.367C3295.72 511.404 3294.94 507.48 3293.42 503.82C3291.9 500.159 3289.67 496.834 3286.87 494.035C3284.06 491.237 3280.73 489.019 3277.07 487.509C3273.4 485.999 3269.48 485.226 3265.51 485.236V485.236ZM3470.41 485.236C3466.41 485.148 3462.42 485.861 3458.69 487.334C3454.97 488.807 3451.57 491.01 3448.7 493.813C3445.84 496.616 3443.56 499.964 3442.01 503.659C3440.45 507.354 3439.65 511.322 3439.65 515.331C3439.65 519.339 3440.45 523.308 3442.01 527.003C3443.56 530.698 3445.84 534.045 3448.7 536.848C3451.57 539.652 3454.97 541.854 3458.69 543.327C3462.42 544.8 3466.41 545.513 3470.41 545.425C3474.37 545.435 3478.28 544.664 3481.94 543.158C3485.59 541.652 3488.92 539.439 3491.72 536.647C3494.51 533.855 3496.74 530.538 3498.25 526.887C3499.77 523.235 3500.55 519.32 3500.55 515.367C3500.55 511.408 3499.78 507.486 3498.27 503.827C3496.76 500.168 3494.54 496.843 3491.74 494.044C3488.94 491.245 3485.61 489.025 3481.95 487.514C3478.29 486.002 3474.37 485.228 3470.41 485.236V485.236ZM3368 493.994C3376.08 493.994 3382.65 499.881 3382.65 507.203V549.036C3382.65 556.358 3376.08 562.332 3368 562.332C3359.92 562.332 3353.36 556.373 3353.36 549.036V507.203C3353.36 499.881 3359.92 493.994 3368 493.994V493.994ZM3164.25 601.685C3164.25 609.008 3164.32 616.939 3164.32 618.52C3164.32 690.121 3255.09 724.471 3367.84 724.848H3368.15C3480.9 724.471 3571.6 690.106 3571.6 618.52L3571.74 601.685L3504 608.254L3501.66 641.705C3501.53 643.645 3500.69 645.471 3499.32 646.846C3497.95 648.221 3496.12 649.052 3494.18 649.187L3413.3 654.929C3411.36 654.925 3409.5 654.23 3408.03 652.97C3406.56 651.71 3405.59 649.968 3405.29 648.056L3400.68 616.794H3335.2L3330.59 648.056C3330.29 650.08 3329.24 651.914 3327.64 653.19C3326.04 654.466 3324.02 655.087 3321.98 654.929L3241.78 649.187C3239.84 649.043 3238.01 648.21 3236.62 646.838C3235.24 645.467 3234.39 643.647 3234.22 641.705L3231.96 608.254L3164.22 601.758L3164.25 601.685Z" fill="#87C5FF"/>
</g>
<defs>
<clipPath id="clip0_248_241">
<rect width="464" height="464" fill="white" transform="translate(3136 274)"/>
</clipPath>
</defs>
</svg>
