<svg width="703" height="221" viewBox="0 0 703 221" fill="none" xmlns="http://www.w3.org/2000/svg">
<g clip-path="url(#clip0_1_2)">
<rect width="703" height="221" fill="white"/>
<path d="M278.215 78.275L285.91 110H296.755L301.21 90.56L305.575 110H316.42L324.205 78.275H314.665L310.975 99.785L306.115 78.275H296.44L291.445 99.965L287.755 78.275H278.215ZM349.728 110H359.043L347.523 78.275H337.353L325.788 110H335.058L336.768 104.825H348.018L349.728 110ZM345.813 98.075H339.018L342.393 87.815L345.813 98.075ZM378.702 88.94C378.702 91.1 377.487 92.27 375.102 92.27H370.737V85.655H375.102C377.487 85.655 378.702 86.96 378.702 88.94ZM375.822 78.275H361.917V110H370.737V98.3H371.682L377.982 110H387.837L380.682 97.625C385.407 96.185 387.657 92.585 387.657 88.445C387.657 82.775 383.697 78.275 375.822 78.275ZM413.133 78.275L405.978 101.18L398.778 78.275H389.328L400.308 110H411.603L422.538 78.275H413.133ZM425.287 78.275V110H434.107V78.275H425.287ZM447.949 78.275H439.129V110H457.804V103.25H447.949V78.275ZM460.334 90.74V98.075H480.719V90.74H460.334ZM504.529 100.1C504.529 101.99 503.404 102.89 501.199 102.89H496.069V97.13H501.154C503.314 97.13 504.529 98.165 504.529 100.1ZM503.854 88.13C503.854 89.975 502.684 90.875 500.524 90.875H496.069V85.295H500.524C502.684 85.295 503.854 86.24 503.854 88.13ZM513.574 101.36C513.574 97.76 511.279 94.565 507.499 93.71C510.604 92.855 512.854 90.335 512.854 86.51C512.854 81.245 508.894 78.275 502.459 78.275H487.249V110H502.954C509.749 110 513.574 106.715 513.574 101.36ZM532.65 110.315C541.65 110.315 548.895 103.565 548.895 94.025C548.895 84.485 541.695 77.78 532.65 77.78C523.65 77.78 516.36 84.485 516.36 94.025C516.36 103.565 523.65 110.315 532.65 110.315ZM532.65 102.125C528.06 102.125 525.36 98.93 525.36 94.025C525.36 89.03 528.06 85.88 532.65 85.88C537.195 85.88 539.94 89.03 539.94 94.025C539.94 98.93 537.195 102.125 532.65 102.125ZM551.105 78.275V85.295H559.475V110H568.295V85.295H576.755V78.275H551.105Z" fill="#8758FF"/>
<path d="M284.322 128.242L287.052 138.014L288.466 138L290.818 130.146L293.086 138H294.514L297.342 128.242H295.97L293.828 136.488L291.588 128.242H290.16L287.808 136.516L285.68 128.242H284.322ZM298.26 134.136C298.26 136.516 299.842 138.126 301.886 138.126C303.3 138.126 304.294 137.398 304.756 136.572V138H306.044V130.328H304.756V131.728C304.308 130.93 303.328 130.202 301.9 130.202C299.842 130.202 298.26 131.742 298.26 134.136ZM304.756 134.15C304.756 135.956 303.552 137.006 302.152 137.006C300.752 137.006 299.562 135.942 299.562 134.136C299.562 132.33 300.752 131.308 302.152 131.308C303.552 131.308 304.756 132.372 304.756 134.15ZM309.471 133.828C309.471 132.05 310.395 131.504 311.613 131.504H311.949V130.188C310.731 130.188 309.905 130.72 309.471 131.574V130.328H308.197V138H309.471V133.828ZM313.882 130.328H312.51L315.52 138H317.004L320.014 130.328H318.656L316.276 136.824L313.882 130.328ZM321.267 130.328V138H322.541V130.328H321.267ZM321.925 129.082C322.387 129.082 322.765 128.704 322.765 128.214C322.765 127.724 322.387 127.346 321.925 127.346C321.435 127.346 321.057 127.724 321.057 128.214C321.057 128.704 321.435 129.082 321.925 129.082ZM324.713 127.64V138H325.987V127.64H324.713ZM331.891 130.328V138H333.165V130.328H331.891ZM332.549 129.082C333.011 129.082 333.389 128.704 333.389 128.214C333.389 127.724 333.011 127.346 332.549 127.346C332.059 127.346 331.681 127.724 331.681 128.214C331.681 128.704 332.059 129.082 332.549 129.082ZM338.052 138.126C339.746 138.126 340.852 137.174 340.852 135.914C340.796 133.17 336.344 134.164 336.344 132.344C336.344 131.728 336.904 131.28 337.842 131.28C338.864 131.28 339.452 131.84 339.508 132.61H340.782C340.698 131.112 339.578 130.202 337.884 130.202C336.176 130.202 335.07 131.168 335.07 132.344C335.07 135.2 339.606 134.206 339.606 135.914C339.606 136.544 339.046 137.048 338.038 137.048C336.96 137.048 336.302 136.488 336.232 135.746H334.916C335 137.146 336.26 138.126 338.052 138.126ZM345.907 134.136C345.907 136.516 347.489 138.126 349.533 138.126C350.947 138.126 351.941 137.398 352.403 136.572V138H353.691V130.328H352.403V131.728C351.955 130.93 350.975 130.202 349.547 130.202C347.489 130.202 345.907 131.742 345.907 134.136ZM352.403 134.15C352.403 135.956 351.199 137.006 349.799 137.006C348.399 137.006 347.209 135.942 347.209 134.136C347.209 132.33 348.399 131.308 349.799 131.308C351.199 131.308 352.403 132.372 352.403 134.15ZM361.458 133.66V138H362.718V133.478C362.718 131.28 361.36 130.188 359.582 130.188C358.546 130.188 357.622 130.622 357.118 131.42V130.328H355.844V138H357.118V133.758C357.118 132.106 358.014 131.294 359.316 131.294C360.604 131.294 361.458 132.092 361.458 133.66ZM375.083 138H376.427L372.913 128.298H371.443L367.915 138H369.259L370.043 135.83H374.299L375.083 138ZM373.935 134.794H370.407L372.171 129.866L373.935 134.794ZM377.965 128.242V138H379.239V128.242H377.965ZM386.416 131.756V127.64H385.142V138H386.416V136.586C386.892 137.426 387.886 138.126 389.286 138.126C391.344 138.126 392.926 136.516 392.926 134.136C392.926 131.742 391.358 130.202 389.286 130.202C387.928 130.202 386.906 130.902 386.416 131.756ZM391.624 134.136C391.624 135.942 390.434 137.006 389.02 137.006C387.634 137.006 386.416 135.956 386.416 134.15C386.416 132.372 387.634 131.308 389.02 131.308C390.434 131.308 391.624 132.33 391.624 134.136ZM397.949 138.126C400.133 138.126 401.883 136.586 401.883 134.15C401.883 131.728 400.189 130.202 398.005 130.202C395.835 130.202 394.127 131.728 394.127 134.15C394.127 136.586 395.779 138.126 397.949 138.126ZM397.949 137.006C396.619 137.006 395.429 136.096 395.429 134.15C395.429 132.218 396.647 131.308 397.991 131.308C399.307 131.308 400.581 132.218 400.581 134.15C400.581 136.096 399.279 137.006 397.949 137.006ZM403.838 128.396V130.328H402.844V131.378H403.838V135.9C403.838 137.44 404.608 138 405.966 138H407.114V136.922H406.176C405.392 136.922 405.112 136.656 405.112 135.9V131.378H407.114V130.328H405.112V128.396H403.838ZM412.671 128.396V130.328H411.677V131.378H412.671V135.9C412.671 137.44 413.441 138 414.799 138H415.947V136.922H415.008C414.225 136.922 413.945 136.656 413.945 135.9V131.378H415.947V130.328H413.945V128.396H412.671ZM417.49 127.64V138H418.764V133.758C418.764 132.106 419.66 131.294 420.962 131.294C422.25 131.294 423.104 132.092 423.104 133.66V138H424.364V133.478C424.364 131.28 423.006 130.188 421.298 130.188C420.22 130.188 419.268 130.622 418.764 131.434V127.64H417.49ZM425.969 134.136C425.969 136.516 427.551 138.126 429.595 138.126C431.009 138.126 432.003 137.398 432.465 136.572V138H433.753V130.328H432.465V131.728C432.017 130.93 431.037 130.202 429.609 130.202C427.551 130.202 425.969 131.742 425.969 134.136ZM432.465 134.15C432.465 135.956 431.261 137.006 429.861 137.006C428.461 137.006 427.271 135.942 427.271 134.136C427.271 132.33 428.461 131.308 429.861 131.308C431.261 131.308 432.465 132.372 432.465 134.15ZM436.186 128.396V130.328H435.192V131.378H436.186V135.9C436.186 137.44 436.956 138 438.314 138H439.462V136.922H438.524C437.74 136.922 437.46 136.656 437.46 135.9V131.378H439.462V130.328H437.46V128.396H436.186ZM447.454 138.126C449.148 138.126 450.254 137.174 450.254 135.914C450.198 133.17 445.746 134.164 445.746 132.344C445.746 131.728 446.306 131.28 447.244 131.28C448.266 131.28 448.854 131.84 448.91 132.61H450.184C450.1 131.112 448.98 130.202 447.286 130.202C445.578 130.202 444.472 131.168 444.472 132.344C444.472 135.2 449.008 134.206 449.008 135.914C449.008 136.544 448.448 137.048 447.44 137.048C446.362 137.048 445.704 136.488 445.634 135.746H444.318C444.402 137.146 445.662 138.126 447.454 138.126ZM455.315 131.28C456.631 131.28 457.751 132.106 457.737 133.604H452.893C453.033 132.106 454.069 131.28 455.315 131.28ZM458.899 135.634H457.527C457.247 136.46 456.519 137.048 455.371 137.048C454.069 137.048 452.977 136.194 452.879 134.64H459.011C459.039 134.374 459.053 134.15 459.053 133.87C459.053 131.77 457.597 130.202 455.371 130.202C453.131 130.202 451.577 131.728 451.577 134.15C451.577 136.586 453.187 138.126 455.371 138.126C457.275 138.126 458.507 137.034 458.899 135.634ZM463.996 131.28C465.312 131.28 466.432 132.106 466.418 133.604H461.574C461.714 132.106 462.75 131.28 463.996 131.28ZM467.58 135.634H466.208C465.928 136.46 465.2 137.048 464.052 137.048C462.75 137.048 461.658 136.194 461.56 134.64H467.692C467.72 134.374 467.734 134.15 467.734 133.87C467.734 131.77 466.278 130.202 464.052 130.202C461.812 130.202 460.258 131.728 460.258 134.15C460.258 136.586 461.868 138.126 464.052 138.126C465.956 138.126 467.188 137.034 467.58 135.634ZM469.416 127.64V138H470.69V134.612L473.7 138H475.436L471.81 134.15L475.422 130.328H473.644L470.69 133.73V127.64H469.416ZM479.337 138.126C481.031 138.126 482.137 137.174 482.137 135.914C482.081 133.17 477.629 134.164 477.629 132.344C477.629 131.728 478.189 131.28 479.127 131.28C480.149 131.28 480.737 131.84 480.793 132.61H482.067C481.983 131.112 480.863 130.202 479.169 130.202C477.461 130.202 476.355 131.168 476.355 132.344C476.355 135.2 480.891 134.206 480.891 135.914C480.891 136.544 480.331 137.048 479.323 137.048C478.245 137.048 477.587 136.488 477.517 135.746H476.201C476.285 137.146 477.545 138.126 479.337 138.126ZM487.948 128.396V130.328H486.954V131.378H487.948V135.9C487.948 137.44 488.718 138 490.076 138H491.224V136.922H490.286C489.502 136.922 489.222 136.656 489.222 135.9V131.378H491.224V130.328H489.222V128.396H487.948ZM496.113 138.126C498.297 138.126 500.047 136.586 500.047 134.15C500.047 131.728 498.353 130.202 496.169 130.202C493.999 130.202 492.291 131.728 492.291 134.15C492.291 136.586 493.943 138.126 496.113 138.126ZM496.113 137.006C494.783 137.006 493.593 136.096 493.593 134.15C493.593 132.218 494.811 131.308 496.155 131.308C497.471 131.308 498.745 132.218 498.745 134.15C498.745 136.096 497.443 137.006 496.113 137.006ZM506.729 133.828C506.729 132.05 507.653 131.504 508.871 131.504H509.207V130.188C507.989 130.188 507.163 130.72 506.729 131.574V130.328H505.455V138H506.729V133.828ZM513.94 131.28C515.256 131.28 516.376 132.106 516.362 133.604H511.518C511.658 132.106 512.694 131.28 513.94 131.28ZM517.524 135.634H516.152C515.872 136.46 515.144 137.048 513.996 137.048C512.694 137.048 511.602 136.194 511.504 134.64H517.636C517.664 134.374 517.678 134.15 517.678 133.87C517.678 131.77 516.222 130.202 513.996 130.202C511.756 130.202 510.202 131.728 510.202 134.15C510.202 136.586 511.812 138.126 513.996 138.126C515.9 138.126 517.132 137.034 517.524 135.634ZM522.075 138.126C523.769 138.126 524.875 137.174 524.875 135.914C524.819 133.17 520.367 134.164 520.367 132.344C520.367 131.728 520.927 131.28 521.865 131.28C522.887 131.28 523.475 131.84 523.531 132.61H524.805C524.721 131.112 523.601 130.202 521.907 130.202C520.199 130.202 519.093 131.168 519.093 132.344C519.093 135.2 523.629 134.206 523.629 135.914C523.629 136.544 523.069 137.048 522.061 137.048C520.983 137.048 520.325 136.488 520.255 135.746H518.939C519.023 137.146 520.283 138.126 522.075 138.126ZM527.948 131.742V130.328H526.674V141.64H527.948V136.586C528.424 137.37 529.418 138.126 530.818 138.126C532.876 138.126 534.458 136.516 534.458 134.136C534.458 131.742 532.876 130.202 530.818 130.202C529.418 130.202 528.41 130.93 527.948 131.742ZM533.156 134.136C533.156 135.942 531.966 137.006 530.552 137.006C529.166 137.006 527.948 135.956 527.948 134.15C527.948 132.372 529.166 131.308 530.552 131.308C531.966 131.308 533.156 132.33 533.156 134.136ZM539.481 138.126C541.665 138.126 543.415 136.586 543.415 134.15C543.415 131.728 541.721 130.202 539.537 130.202C537.367 130.202 535.659 131.728 535.659 134.15C535.659 136.586 537.311 138.126 539.481 138.126ZM539.481 137.006C538.151 137.006 536.961 136.096 536.961 134.15C536.961 132.218 538.179 131.308 539.523 131.308C540.839 131.308 542.113 132.218 542.113 134.15C542.113 136.096 540.811 137.006 539.481 137.006ZM550.704 133.66V138H551.964V133.478C551.964 131.28 550.606 130.188 548.828 130.188C547.792 130.188 546.868 130.622 546.364 131.42V130.328H545.09V138H546.364V133.758C546.364 132.106 547.26 131.294 548.562 131.294C549.85 131.294 550.704 132.092 550.704 133.66ZM553.569 134.136C553.569 136.516 555.151 138.126 557.209 138.126C558.609 138.126 559.603 137.412 560.065 136.558V138H561.353V127.64H560.065V131.7C559.533 130.818 558.427 130.202 557.223 130.202C555.151 130.202 553.569 131.742 553.569 134.136ZM560.065 134.15C560.065 135.956 558.861 137.006 557.461 137.006C556.061 137.006 554.871 135.942 554.871 134.136C554.871 132.33 556.061 131.308 557.461 131.308C558.861 131.308 560.065 132.372 560.065 134.15ZM567.518 128.396V130.328H566.524V131.378H567.518V135.9C567.518 137.44 568.288 138 569.646 138H570.794V136.922H569.856C569.072 136.922 568.792 136.656 568.792 135.9V131.378H570.794V130.328H568.792V128.396H567.518ZM575.684 138.126C577.868 138.126 579.618 136.586 579.618 134.15C579.618 131.728 577.924 130.202 575.74 130.202C573.57 130.202 571.862 131.728 571.862 134.15C571.862 136.586 573.514 138.126 575.684 138.126ZM575.684 137.006C574.354 137.006 573.164 136.096 573.164 134.15C573.164 132.218 574.382 131.308 575.726 131.308C577.042 131.308 578.316 132.218 578.316 134.15C578.316 136.096 577.014 137.006 575.684 137.006ZM290.37 148.328L287.99 154.544L285.582 148.328H284.168L287.262 155.916L285.75 159.612H287.066L291.686 148.328H290.37ZM296.313 156.126C298.497 156.126 300.247 154.586 300.247 152.15C300.247 149.728 298.553 148.202 296.369 148.202C294.199 148.202 292.491 149.728 292.491 152.15C292.491 154.586 294.143 156.126 296.313 156.126ZM296.313 155.006C294.983 155.006 293.793 154.096 293.793 152.15C293.793 150.218 295.011 149.308 296.355 149.308C297.671 149.308 298.945 150.218 298.945 152.15C298.945 154.096 297.643 155.006 296.313 155.006ZM308.726 156V148.328H307.452V152.542C307.452 154.194 306.57 155.006 305.254 155.006C303.966 155.006 303.112 154.208 303.112 152.654V148.328H301.852V152.822C301.852 155.02 303.238 156.112 305.002 156.112C306.024 156.112 306.962 155.664 307.452 154.866V156H308.726ZM312.151 151.828C312.151 150.05 313.075 149.504 314.293 149.504H314.629V148.188C313.411 148.188 312.585 148.72 312.151 149.574V148.328H310.877V156H312.151V151.828ZM319.356 152.136C319.356 154.516 320.938 156.126 322.968 156.126C324.396 156.126 325.418 155.37 325.852 154.586V159.64H327.14V148.328H325.852V149.728C325.418 148.93 324.41 148.202 323.01 148.202C320.938 148.202 319.356 149.742 319.356 152.136ZM325.852 152.15C325.852 153.956 324.648 155.006 323.248 155.006C321.848 155.006 320.658 153.942 320.658 152.136C320.658 150.33 321.848 149.308 323.248 149.308C324.648 149.308 325.852 150.372 325.852 152.15ZM336.097 156V148.328H334.823V152.542C334.823 154.194 333.941 155.006 332.625 155.006C331.337 155.006 330.483 154.208 330.483 152.654V148.328H329.223V152.822C329.223 155.02 330.609 156.112 332.373 156.112C333.395 156.112 334.333 155.664 334.823 154.866V156H336.097ZM341.51 149.28C342.826 149.28 343.946 150.106 343.932 151.604H339.088C339.228 150.106 340.264 149.28 341.51 149.28ZM345.094 153.634H343.722C343.442 154.46 342.714 155.048 341.566 155.048C340.264 155.048 339.172 154.194 339.074 152.64H345.206C345.234 152.374 345.248 152.15 345.248 151.87C345.248 149.77 343.792 148.202 341.566 148.202C339.326 148.202 337.772 149.728 337.772 152.15C337.772 154.586 339.382 156.126 341.566 156.126C343.47 156.126 344.702 155.034 345.094 153.634ZM348.204 151.828C348.204 150.05 349.128 149.504 350.346 149.504H350.682V148.188C349.464 148.188 348.638 148.72 348.204 149.574V148.328H346.93V156H348.204V151.828ZM352.152 148.328V156H353.426V148.328H352.152ZM352.81 147.082C353.272 147.082 353.65 146.704 353.65 146.214C353.65 145.724 353.272 145.346 352.81 145.346C352.32 145.346 351.942 145.724 351.942 146.214C351.942 146.704 352.32 147.082 352.81 147.082ZM358.86 149.28C360.176 149.28 361.296 150.106 361.282 151.604H356.438C356.578 150.106 357.614 149.28 358.86 149.28ZM362.444 153.634H361.072C360.792 154.46 360.064 155.048 358.916 155.048C357.614 155.048 356.522 154.194 356.424 152.64H362.556C362.584 152.374 362.598 152.15 362.598 151.87C362.598 149.77 361.142 148.202 358.916 148.202C356.676 148.202 355.122 149.728 355.122 152.15C355.122 154.586 356.732 156.126 358.916 156.126C360.82 156.126 362.052 155.034 362.444 153.634ZM366.995 156.126C368.689 156.126 369.795 155.174 369.795 153.914C369.739 151.17 365.287 152.164 365.287 150.344C365.287 149.728 365.847 149.28 366.785 149.28C367.807 149.28 368.395 149.84 368.451 150.61H369.725C369.641 149.112 368.521 148.202 366.827 148.202C365.119 148.202 364.013 149.168 364.013 150.344C364.013 153.2 368.549 152.206 368.549 153.914C368.549 154.544 367.989 155.048 366.981 155.048C365.903 155.048 365.245 154.488 365.175 153.746H363.859C363.943 155.146 365.203 156.126 366.995 156.126ZM374.85 152.136C374.85 154.516 376.432 156.126 378.476 156.126C379.89 156.126 380.884 155.398 381.346 154.572V156H382.634V148.328H381.346V149.728C380.898 148.93 379.918 148.202 378.49 148.202C376.432 148.202 374.85 149.742 374.85 152.136ZM381.346 152.15C381.346 153.956 380.142 155.006 378.742 155.006C377.342 155.006 376.152 153.942 376.152 152.136C376.152 150.33 377.342 149.308 378.742 149.308C380.142 149.308 381.346 150.372 381.346 152.15ZM386.061 149.756V145.64H384.787V156H386.061V154.586C386.537 155.426 387.531 156.126 388.931 156.126C390.989 156.126 392.571 154.516 392.571 152.136C392.571 149.742 391.003 148.202 388.931 148.202C387.573 148.202 386.551 148.902 386.061 149.756ZM391.269 152.136C391.269 153.942 390.079 155.006 388.665 155.006C387.279 155.006 386.061 153.956 386.061 152.15C386.061 150.372 387.279 149.308 388.665 149.308C390.079 149.308 391.269 150.33 391.269 152.136ZM397.594 156.126C399.778 156.126 401.528 154.586 401.528 152.15C401.528 149.728 399.834 148.202 397.65 148.202C395.48 148.202 393.772 149.728 393.772 152.15C393.772 154.586 395.424 156.126 397.594 156.126ZM397.594 155.006C396.264 155.006 395.074 154.096 395.074 152.15C395.074 150.218 396.292 149.308 397.636 149.308C398.952 149.308 400.226 150.218 400.226 152.15C400.226 154.096 398.924 155.006 397.594 155.006ZM410.007 156V148.328H408.733V152.542C408.733 154.194 407.851 155.006 406.535 155.006C405.247 155.006 404.393 154.208 404.393 152.654V148.328H403.133V152.822C403.133 155.02 404.519 156.112 406.283 156.112C407.305 156.112 408.243 155.664 408.733 154.866V156H410.007ZM412.438 146.396V148.328H411.444V149.378H412.438V153.9C412.438 155.44 413.208 156 414.566 156H415.714V154.922H414.776C413.992 154.922 413.712 154.656 413.712 153.9V149.378H415.714V148.328H413.712V146.396H412.438ZM424.616 146.242V153.452C424.616 154.264 424.21 154.964 423.202 154.964C422.194 154.964 421.774 154.25 421.76 153.354H420.486C420.486 155.062 421.578 156.098 423.202 156.098C424.812 156.098 425.904 155.076 425.904 153.452V146.242H424.616ZM427.938 152.136C427.938 154.516 429.52 156.126 431.564 156.126C432.978 156.126 433.972 155.398 434.434 154.572V156H435.722V148.328H434.434V149.728C433.986 148.93 433.006 148.202 431.578 148.202C429.52 148.202 427.938 149.742 427.938 152.136ZM434.434 152.15C434.434 153.956 433.23 155.006 431.83 155.006C430.43 155.006 429.24 153.942 429.24 152.136C429.24 150.33 430.43 149.308 431.83 149.308C433.23 149.308 434.434 150.372 434.434 152.15ZM438.337 148.328H436.965L439.975 156H441.459L444.469 148.328H443.111L440.731 154.824L438.337 148.328ZM445.247 152.136C445.247 154.516 446.829 156.126 448.873 156.126C450.287 156.126 451.281 155.398 451.743 154.572V156H453.031V148.328H451.743V149.728C451.295 148.93 450.315 148.202 448.887 148.202C446.829 148.202 445.247 149.742 445.247 152.136ZM451.743 152.15C451.743 153.956 450.539 155.006 449.139 155.006C447.739 155.006 446.549 153.942 446.549 152.136C446.549 150.33 447.739 149.308 449.139 149.308C450.539 149.308 451.743 150.372 451.743 152.15ZM457.899 156.126C459.593 156.126 460.699 155.174 460.699 153.914C460.643 151.17 456.191 152.164 456.191 150.344C456.191 149.728 456.751 149.28 457.689 149.28C458.711 149.28 459.299 149.84 459.355 150.61H460.629C460.545 149.112 459.425 148.202 457.731 148.202C456.023 148.202 454.917 149.168 454.917 150.344C454.917 153.2 459.453 152.206 459.453 153.914C459.453 154.544 458.893 155.048 457.885 155.048C456.807 155.048 456.149 154.488 456.079 153.746H454.763C454.847 155.146 456.107 156.126 457.899 156.126ZM462.022 152.15C462.022 154.586 463.576 156.126 465.76 156.126C467.664 156.126 468.91 155.062 469.302 153.536H467.93C467.65 154.502 466.894 155.048 465.76 155.048C464.36 155.048 463.324 154.054 463.324 152.15C463.324 150.274 464.36 149.28 465.76 149.28C466.894 149.28 467.664 149.868 467.93 150.792H469.302C468.91 149.182 467.664 148.202 465.76 148.202C463.576 148.202 462.022 149.742 462.022 152.15ZM472.276 151.828C472.276 150.05 473.2 149.504 474.418 149.504H474.754V148.188C473.536 148.188 472.71 148.72 472.276 149.574V148.328H471.002V156H472.276V151.828ZM476.224 148.328V156H477.498V148.328H476.224ZM476.882 147.082C477.344 147.082 477.722 146.704 477.722 146.214C477.722 145.724 477.344 145.346 476.882 145.346C476.392 145.346 476.014 145.724 476.014 146.214C476.014 146.704 476.392 147.082 476.882 147.082ZM480.944 149.742V148.328H479.67V159.64H480.944V154.586C481.42 155.37 482.414 156.126 483.814 156.126C485.872 156.126 487.454 154.516 487.454 152.136C487.454 149.742 485.872 148.202 483.814 148.202C482.414 148.202 481.406 148.93 480.944 149.742ZM486.152 152.136C486.152 153.942 484.962 155.006 483.548 155.006C482.162 155.006 480.944 153.956 480.944 152.15C480.944 150.372 482.162 149.308 483.548 149.308C484.962 149.308 486.152 150.33 486.152 152.136ZM489.411 146.396V148.328H488.417V149.378H489.411V153.9C489.411 155.44 490.181 156 491.539 156H492.687V154.922H491.749C490.965 154.922 490.685 154.656 490.685 153.9V149.378H492.687V148.328H490.685V146.396H489.411ZM494.636 156.084C495.098 156.084 495.476 155.706 495.476 155.216C495.476 154.726 495.098 154.348 494.636 154.348C494.146 154.348 493.768 154.726 493.768 155.216C493.768 155.706 494.146 156.084 494.636 156.084Z" fill="#6D6B71"/>
<path d="M246.286 128.833C247.738 128.833 249.177 129.119 250.519 129.675C251.861 130.231 253.081 131.046 254.108 132.073C255.135 133.101 255.95 134.32 256.506 135.662C257.062 137.005 257.348 138.443 257.348 139.896V144.341C257.349 146.998 256.775 149.625 255.666 152.04C254.557 154.455 252.938 156.602 250.922 158.333C243.227 164.941 232.209 168.167 218 168.167C203.791 168.167 192.787 164.941 185.107 158.333C183.094 156.603 181.478 154.458 180.37 152.046C179.261 149.633 178.687 147.01 178.686 144.355V139.891C178.688 136.958 179.854 134.145 181.928 132.072C184.003 129.998 186.816 128.833 189.749 128.833H246.29H246.286ZM217.508 69.8628L218 69.8333C218.891 69.8334 219.752 70.1561 220.424 70.7418C221.095 71.3275 221.532 72.1365 221.653 73.0193L221.687 73.5208L221.683 77.2034H238.891C241.825 77.2034 244.639 78.3689 246.713 80.4436C248.788 82.5182 249.953 85.332 249.953 88.2659V110.416C249.953 113.349 248.788 116.163 246.713 118.238C244.639 120.313 241.825 121.478 238.891 121.478H197.099C194.165 121.478 191.351 120.313 189.277 118.238C187.202 116.163 186.037 113.349 186.037 110.416V88.2708C186.037 86.8177 186.323 85.3788 186.879 84.0363C187.436 82.6938 188.251 81.474 189.279 80.4467C190.306 79.4194 191.526 78.6047 192.869 78.049C194.212 77.4934 195.651 77.2077 197.104 77.2083L214.312 77.2034V73.5208C214.313 72.629 214.636 71.7675 215.223 71.0958C215.809 70.4241 216.62 69.9879 217.503 69.8678L218 69.8333L217.498 69.8678L217.508 69.8628ZM206.933 91.9583C206.105 91.9252 205.28 92.0596 204.506 92.3533C203.732 92.6469 203.026 93.094 202.429 93.6675C201.832 94.241 201.357 94.9291 201.033 95.6907C200.708 96.4522 200.541 97.2715 200.541 98.0993C200.541 98.927 200.708 99.7463 201.033 100.508C201.357 101.269 201.832 101.958 202.429 102.531C203.026 103.105 203.732 103.552 204.506 103.845C205.28 104.139 206.105 104.273 206.933 104.24C208.519 104.177 210.019 103.502 211.119 102.357C212.218 101.213 212.833 99.6867 212.833 98.0993C212.833 96.5118 212.218 94.986 211.119 93.8413C210.019 92.6966 208.519 92.0218 206.933 91.9583V91.9583ZM229.023 91.9583C228.196 91.9252 227.371 92.0596 226.597 92.3533C225.823 92.6469 225.116 93.094 224.519 93.6675C223.922 94.241 223.448 94.9291 223.123 95.6907C222.799 96.4522 222.632 97.2715 222.632 98.0993C222.632 98.927 222.799 99.7463 223.123 100.508C223.448 101.269 223.922 101.958 224.519 102.531C225.116 103.105 225.823 103.552 226.597 103.845C227.371 104.139 228.196 104.273 229.023 104.24C230.609 104.177 232.109 103.502 233.209 102.357C234.309 101.213 234.923 99.6867 234.923 98.0993C234.923 96.5118 234.309 94.986 233.209 93.8413C232.109 92.6966 230.609 92.0218 229.023 91.9583V91.9583Z" fill="#8758FF"/>
<g opacity="0.2">
<path d="M320.239 172.5C325.336 172.5 330.383 173.504 335.092 175.454C339.801 177.405 344.08 180.264 347.684 183.868C351.288 187.472 354.147 191.751 356.097 196.46C358.048 201.169 359.052 206.216 359.052 211.313V226.906C359.054 236.231 357.041 245.446 353.149 253.919C349.258 262.393 343.58 269.925 336.506 276C309.51 299.184 270.852 310.5 221 310.5C171.147 310.5 132.542 299.184 105.597 276C98.5329 269.929 92.8627 262.405 88.9745 253.941C85.0863 245.477 83.0719 236.273 83.069 226.958V211.295C83.0735 201.005 87.1647 191.137 94.443 183.862C101.721 176.587 111.591 172.5 121.881 172.5H320.256H320.239ZM219.275 -34.3965L221 -34.5C224.126 -34.4998 227.147 -33.3676 229.503 -31.3127C231.859 -29.2578 233.392 -26.4193 233.817 -23.322L233.937 -21.5625L233.92 -8.64222H294.295C304.589 -8.64222 314.461 -4.55306 321.74 2.72569C329.019 10.0044 333.108 19.8766 333.108 30.1703V107.882C333.108 118.175 329.019 128.047 321.74 135.326C314.461 142.605 304.589 146.694 294.295 146.694H147.67C137.377 146.694 127.504 142.605 120.226 135.326C112.947 128.047 108.858 118.175 108.858 107.882V30.1875C108.858 25.0891 109.862 20.0407 111.814 15.3306C113.765 10.6206 116.626 6.34114 120.232 2.73684C123.838 -0.867454 128.118 -3.726 132.829 -5.6755C137.54 -7.62499 142.589 -8.62724 147.687 -8.62497L208.062 -8.64222V-21.5625C208.063 -24.6914 209.198 -27.7141 211.256 -30.0706C213.315 -32.4271 216.157 -33.9579 219.258 -34.3792L221 -34.5L219.24 -34.3792L219.275 -34.3965ZM182.17 43.125C179.268 43.0089 176.373 43.4801 173.658 44.5106C170.942 45.541 168.463 47.1093 166.369 49.1214C164.275 51.1335 162.608 53.5479 161.47 56.2198C160.332 58.8918 159.745 61.766 159.745 64.6703C159.745 67.5745 160.332 70.4488 161.47 73.1207C162.608 75.7926 164.275 78.207 166.369 80.2191C168.463 82.2313 170.942 83.7996 173.658 84.83C176.373 85.8604 179.268 86.3317 182.17 86.2155C187.735 85.9928 192.998 83.6254 196.857 79.6093C200.715 75.5931 202.87 70.2397 202.87 64.6703C202.87 59.1008 200.715 53.7474 196.857 49.7313C192.998 45.7151 187.735 43.3478 182.17 43.125V43.125ZM259.674 43.125C256.773 43.0089 253.877 43.4801 251.162 44.5106C248.447 45.541 245.967 47.1093 243.873 49.1214C241.779 51.1335 240.113 53.5479 238.975 56.2198C237.836 58.8918 237.25 61.766 237.25 64.6703C237.25 67.5745 237.836 70.4488 238.975 73.1207C240.113 75.7926 241.779 78.207 243.873 80.2191C245.967 82.2313 248.447 83.7996 251.162 84.83C253.877 85.8604 256.773 86.3317 259.674 86.2155C265.239 85.9928 270.502 83.6254 274.361 79.6093C278.22 75.5931 280.375 70.2397 280.375 64.6703C280.375 59.1008 278.22 53.7474 274.361 49.7313C270.502 45.7151 265.239 43.3478 259.674 43.125V43.125Z" fill="#8758FF"/>
</g>
</g>
<defs>
<clipPath id="clip0_1_2">
<rect width="703" height="221" fill="white"/>
</clipPath>
</defs>
</svg>
